Wide-Bold.sfdir
StartChar: exclam
Encoding: 33 33 63
Width: 1000
Flags: MW
LayerCount: 2
Fore
SplineSet
422 78 m 0
 422 117 454 155 500 155 c 0
 541 155 578 122 578 77 c 0
 578 39 546 0 500 0 c 0
 455 0 422 37 422 78 c 0
422 634 m 0
 422 679 465 705 500 705 c 0
 537 705 578 680 578 633 c 0
 578 622 575 611 574 600 c 2
 526 256 l 2
 523 233 521 225 500 225 c 0
 477 225 476 236 472 265 c 2
 426 599 l 2
 424 610 422 622 422 634 c 0
EndSplineSet
EndChar
StartChar: quotedbl
Encoding: 34 34 64
Width: 1000
Flags: MW
LayerCount: 2
Fore
SplineSet
340 650 m 0
 340 688 371 710 404 710 c 0
 437 710 467 689 467 649 c 0
 467 636 467 640 422 359 c 1
 385 359 l 1
 344 616 l 2
 343 627 340 638 340 650 c 0
533 650 m 0
 533 686 561 710 596 710 c 0
 631 710 660 687 660 650 c 0
 660 638 657 627 656 616 c 2
 615 359 l 1
 578 359 l 1
 578 359 533 638 533 650 c 0
EndSplineSet
EndChar
StartChar: numbersign
Encoding: 35 35 65
Width: 1000
Flags: MW
LayerCount: 2
Fore
SplineSet
86 138 m 0
 86 156 105 157 115 157 c 2
 317 157 l 1
 375 343 l 1
 116 343 l 2
 103 343 86 344 86 361 c 0
 86 378 103 379 115 379 c 2
 388 379 l 1
 393 396 479 673 483 681 c 0
 487 687 493 693 500 693 c 0
 512 693 518 681 517 670 c 0
 517 669 515 664 512 654 c 0
 502 622 477 541 426 379 c 1
 657 379 l 1
 665 407 692 492 745 660 c 0
 750 673 754 693 770 693 c 0
 782 693 788 681 786 670 c 0
 786 669 784 662 780 649 c 0
 769 614 744 533 695 379 c 1
 879 379 l 2
 893 379 914 378 914 361 c 0
 914 343 896 343 884 343 c 2
 683 343 l 1
 625 157 l 1
 884 157 l 2
 897 157 914 156 914 139 c 0
 914 122 898 120 886 120 c 2
 613 120 l 1
 605 92 578 8 525 -160 c 0
 520 -174 516 -193 500 -193 c 0
 489 -193 484 -183 484 -174 c 0
 484 -168 487 -160 498 -124 c 4
 510 -86 533 -15 575 120 c 1
 343 120 l 1
 335 92 308 8 255 -160 c 0
 251 -174 246 -193 231 -193 c 0
 220 -193 214 -183 214 -174 c 0
 214 -167 218 -158 220 -150 c 2
 305 120 l 1
 122 120 l 2
 107 120 86 121 86 138 c 0
355 157 m 1
 587 157 l 1
 645 343 l 1
 414 343 l 1
 355 157 l 1
EndSplineSet
EndChar
StartChar: dollar
Encoding: 36 36 66
Width: 1000
Flags: MW
LayerCount: 2
Fore
SplineSet
251 185 m 0
 251 239 291 252 313 252 c 0
 349 252 377 225 377 189 c 0
 377 171 369 140 330 130 c 0
 324 129 318 127 311 127 c 1
 337 78 376 52 471 43 c 1
 471 293 l 1
 445 298 418 302 393 310 c 0
 351 324 312 351 285 389 c 0
 264 418 251 455 251 497 c 0
 251 580 299 686 471 699 c 1
 471 750 l 1
 531 750 l 1
 531 699 l 1
 705 690 749 593 749 522 c 0
 749 469 709 456 687 456 c 0
 654 456 623 480 623 518 c 0
 623 535 631 570 673 579 c 0
 677 580 682 581 687 581 c 1
 673 603 646 643 531 651 c 1
 531 428 l 1
 651 409 699 359 724 311 c 0
 745 269 749 228 749 210 c 0
 749 151 727 14 531 -5 c 1
 531 -55 l 1
 471 -55 l 1
 471 -5 l 1
 282 7 251 127 251 185 c 0
332 546 m 0
 332 528 337 484 404 456 c 0
 422 449 445 443 471 439 c 1
 471 651 l 1
 385 642 332 609 332 546 c 0
531 44 m 1
 656 57 668 132 668 162 c 0
 668 181 663 242 577 272 c 0
 563 276 549 280 531 283 c 1
 531 44 l 1
EndSplineSet
EndChar
StartChar: percent
Encoding: 37 37 67
Width: 1000
Flags: MW
LayerCount: 2
Fore
SplineSet
86 549 m 0
 86 689 174 750 258 750 c 0
 291 750 315 739 336 724 c 0
 366 702 446 644 562 644 c 0
 650 644 714 679 758 731 c 0
 766 741 773 750 788 750 c 0
 802 750 818 739 818 719 c 0
 818 709 815 704 808 695 c 2
 238 -40 l 2
 231 -50 226 -56 212 -56 c 0
 195 -56 182 -42 182 -25 c 0
 182 -14 191 -1 192 0 c 2
 680 630 l 1
 680 630 l 1
 630 610 583 608 562 608 c 0
 513 608 456 619 390 649 c 1
 405 602 404 566 404 548 c 0
 404 406 332 347 258 347 c 0
 177 347 86 404 86 549 c 0
188 548 m 0
 188 486 189 383 260 383 c 0
 298 383 358 418 358 549 c 0
 358 673 303 714 260 714 c 0
 189 714 188 611 188 548 c 0
596 146 m 0
 596 286 684 347 768 347 c 0
 838 347 914 292 914 145 c 0
 914 3 842 -56 768 -56 c 0
 687 -56 596 1 596 146 c 0
698 145 m 0
 698 83 699 -20 770 -20 c 0
 808 -20 868 15 868 146 c 0
 868 270 813 311 770 311 c 0
 699 311 698 208 698 145 c 0
EndSplineSet
EndChar
StartChar: ampersand
Encoding: 38 38 68
Width: 1000
Flags: MW
LayerCount: 2
Fore
SplineSet
106 138 m 0
 106 166 116 193 137 218 c 0
 144 226 178 255 199 273 c 2
 273 336 l 1
 243 405 230 469 230 528 c 0
 230 643 327 705 410 705 c 0
 488 705 520 627 520 574 c 0
 520 535 491 494 465 464 c 0
 437 433 392 391 378 379 c 1
 417 295 492 207 555 141 c 1
 626 209 684 291 738 374 c 0
 741 378 743 383 746 387 c 1
 722 397 695 397 673 397 c 1
 673 444 l 1
 700 442 784 441 795 441 c 0
 822 441 862 442 894 444 c 1
 894 397 l 1
 841 397 808 397 794 377 c 2
 712 258 l 2
 666 191 633 157 587 110 c 1
 633 66 682 36 729 36 c 0
 748 36 836 43 840 118 c 1
 887 118 l 1
 884 34 806 -11 724 -11 c 0
 621 -11 541 36 513 52 c 1
 452 12 385 -11 314 -11 c 0
 204 -11 106 45 106 138 c 0
234 174 m 0
 234 145 243 36 326 36 c 0
 333 36 405 36 473 80 c 1
 430 112 394 149 365 186 c 4
 332 227 308 267 289 302 c 1
 248 273 234 221 234 174 c 0
334 565 m 0
 334 503 351 444 363 415 c 1
 430 475 473 529 473 574 c 0
 473 604 460 669 411 669 c 0
 386 669 334 648 334 565 c 0
EndSplineSet
EndChar
StartChar: quotesingle
Encoding: 39 39 69
Width: 1000
Flags: MW
LayerCount: 2
Fore
SplineSet
436 650 m 0
 436 688 466 710 500 710 c 0
 523 710 564 698 564 648 c 0
 564 643 563 640 560 620 c 6
 556 590 544 524 518 359 c 1
 482 359 l 1
 442 614 l 2
 440 626 436 638 436 650 c 0
EndSplineSet
EndChar
StartChar: parenleft
Encoding: 40 40 70
Width: 1000
Flags: MW
LayerCount: 2
Fore
SplineSet
662 251 m 0
 662 357 685 541 841 696 c 0
 859 713 901 750 918 750 c 0
 926 750 936 747 936 736 c 0
 936 731 935 730 920 715 c 0
 810 604 759 447 759 250 c 0
 759 162 771 70 797 -9 c 0
 839 -137 904 -198 933 -225 c 0
 933 -226 936 -230 936 -235 c 0
 936 -246 926 -249 918 -249 c 0
 899 -249 808 -182 742 -67 c 0
 695 16 662 126 662 251 c 0
EndSplineSet
EndChar
StartChar: asterisk
Encoding: 42 42 72
Width: 1000
Flags: MW
LayerCount: 2
Fore
SplineSet
191 145 m 0
 191 180 216 187 227 191 c 2
 458 278 l 1
 227 365 l 6
 216 369 191 376 191 411 c 4
 191 446 220 469 244 469 c 4
 251 469 262 467 276 456 c 6
 481 310 l 1
 451 527 l 2
 447 546 447 549 447 555 c 0
 447 589 480 602 500 602 c 0
 520 602 553 590 553 555 c 0
 553 549 553 546 549 527 c 2
 519 310 l 1
 724 456 l 2
 738 467 749 469 756 469 c 0
 780 469 809 446 809 411 c 0
 809 376 784 369 773 365 c 2
 542 278 l 1
 773 191 l 2
 784 187 809 180 809 145 c 0
 809 110 780 87 756 87 c 0
 750 87 740 88 724 100 c 2
 520 245 l 1
 540 96 l 2
 545 66 553 15 553 9 c 0
 553 -25 520 -38 500 -38 c 0
 480 -38 447 -26 447 9 c 0
 447 15 447 17 451 36 c 2
 481 246 l 1
 276 100 l 2
 262 89 251 87 244 87 c 0
 220 87 191 110 191 145 c 0
EndSplineSet
EndChar
StartChar: plus
Encoding: 43 43 73
Width: 1000
Flags: MW
LayerCount: 2
Fore
SplineSet
118 250 m 0
 118 266 138 268 151 268 c 2
 482 268 l 1
 482 596 l 2
 482 600 482 605 482 609 c 0
 483 621 487 632 500 632 c 0
 517 632 519 613 519 600 c 0
 519 596 518 592 518 590 c 2
 518 268 l 1
 844 268 l 2
 850 268 857 268 863 267 c 0
 874 266 882 261 882 250 c 0
 882 240 875 235 867 233 c 4
 862 232 856 232 851 232 c 2
 518 232 l 1
 518 -95 l 2
 518 -112 517 -132 500 -132 c 0
 489 -132 485 -124 483 -114 c 0
 482 -110 482 -104 482 -100 c 2
 482 232 l 1
 155 232 l 2
 150 232 145 232 141 232 c 0
 126 233 118 238 118 250 c 0
EndSplineSet
EndChar
StartChar: hyphen
Encoding: 45 45 75
Width: 1000
Flags: MW
LayerCount: 2
Fore
SplineSet
347 174 m 1
 347 271 l 1
 653 271 l 1
 653 174 l 1
 347 174 l 1
EndSplineSet
EndChar
StartChar: period
Encoding: 46 46 76
Width: 1000
Flags: MW
LayerCount: 2
Fore
SplineSet
81 78 m 0
 81 125 121 156 159 156 c 0
 200 156 237 123 237 78 c 0
 237 39 205 0 159 0 c 0
 118 0 81 33 81 78 c 0
EndSplineSet
EndChar
StartChar: slash
Encoding: 47 47 77
Width: 1000
Flags: MW
LayerCount: 2
Fore
SplineSet
64 -231 m 0
 64 -224 66 -213 80 -197 c 2
 880 721 l 2
 890 732 904 748 918 748 c 0
 927 748 935 740 935 731 c 0
 935 722 928 712 923 706 c 2
 120 -221 l 2
 113 -228 96 -249 81 -249 c 0
 72 -249 64 -240 64 -231 c 0
EndSplineSet
EndChar
StartChar: zero
Encoding: 48 48 0
Width: 1000
Flags: MW
LayerCount: 2
Fore
SplineSet
228 319 m 0
 228 382 227 504 292 582 c 0
 328 625 394 655 500 655 c 0
 595 655 658 631 694 596 c 4
 772 519 772 385 772 319 c 0
 772 252 772 128 700 52 c 0
 664 14 600 -11 500 -11 c 0
 400 -11 336 14 300 52 c 0
 228 128 228 253 228 319 c 0
358 331 m 0
 358 276 358 172 369 120 c 0
 385 47 455 25 500 25 c 0
 538 25 616 39 634 132 c 0
 643 184 642 275 642 331 c 0
 642 413 642 519 621 556 c 0
 597 600 546 619 500 619 c 0
 470 619 383 609 368 520 c 0
 358 468 358 403 358 331 c 0
EndSplineSet
EndChar
StartChar: one
Encoding: 49 49 1
Width: 1000
Flags: MW
LayerCount: 2
Fore
SplineSet
289 544 m 1
 289 591 l 1
 309 591 l 2
 330 591 440 591 518 648 c 0
 527 655 529 655 540 655 c 0
 566 655 566 645 566 623 c 2
 566 47 l 5
 566 47 l 1
 711 47 l 1
 711 47 l 1
 711 0 l 1
 667 3 556 3 507 3 c 0
 458 3 344 3 300 0 c 1
 300 47 l 1
 300 47 l 1
 447 47 l 1
 447 47 l 1
 447 564 l 1
 381 545 325 544 309 544 c 2
 289 544 l 1
EndSplineSet
EndChar
StartChar: two
Encoding: 50 50 2
Width: 1000
Flags: MW
LayerCount: 2
Fore
SplineSet
233 0 m 1
 233 18 l 2
 233 38 232 41 246 52 c 2
 501 257 l 2
 589 328 606 396 606 465 c 0
 606 540 549 608 441 608 c 0
 407 608 372 602 345 589 c 0
 336 585 327 579 320 573 c 1
 323 572 328 571 332 569 c 0
 351 561 383 543 383 501 c 0
 383 451 337 429 305 429 c 0
 281 429 233 444 233 503 c 0
 233 527 240 549 252 568 c 4
 266 590 287 608 315 622 c 0
 355 643 409 655 472 655 c 0
 648 655 767 581 767 466 c 0
 767 371 728 324 586 240 c 0
 530 207 465 164 406 125 c 1
 560 125 l 2
 580 125 673 125 687 131 c 0
 705 138 716 202 720 222 c 1
 767 222 l 1
 736 0 l 1
 233 0 l 1
EndSplineSet
EndChar
StartChar: four
Encoding: 52 52 4
Width: 1000
Flags: MW
LayerCount: 2
Fore
SplineSet
223 156 m 1
 223 203 l 1
 616 640 l 2
 628 655 629 656 650 656 c 0
 678 656 680 651 680 624 c 2
 680 203 l 1
 777 203 l 1
 777 156 l 1
 680 156 l 1
 680 47 l 5
 680 47 l 1
 777 47 l 1
 777 47 l 1
 777 0 l 1
 742 3 655 3 615 3 c 0
 572 3 461 3 413 0 c 1
 413 47 l 1
 413 47 l 1
 553 47 l 1
 553 47 l 1
 553 156 l 1
 223 156 l 1
275 203 m 1
 566 203 l 1
 566 513 l 1
 275 203 l 1
EndSplineSet
EndChar
StartChar: six
Encoding: 54 54 6
Width: 1000
Flags: MW
LayerCount: 2
Fore
SplineSet
236 317 m 0
 236 569 407 655 577 655 c 0
 619 655 652 647 676 633 c 4
 718 609 736 569 736 530 c 0
 736 492 711 466 672 466 c 0
 633 466 606 494 606 528 c 0
 606 558 628 585 664 590 c 1
 641 613 602 616 580 616 c 0
 504 616 436 580 406 533 c 0
 397 518 372 475 372 361 c 2
 372 342 l 1
 424 418 493 418 521 418 c 0
 663 418 764 345 764 205 c 0
 764 71 669 -11 505 -11 c 0
 417 -11 333 13 286 89 c 1
 245 158 236 238 236 317 c 0
374 210 m 0
 374 192 374 119 394 87 c 0
 404 71 437 32 502 32 c 0
 567 32 599 51 614 84 c 0
 629 115 628 158 628 207 c 0
 628 259 629 305 611 336 c 0
 596 365 566 382 510 382 c 0
 441 382 374 335 374 210 c 0
EndSplineSet
EndChar
StartChar: colon
Encoding: 58 58 78
Width: 1000
Flags: MW
LayerCount: 2
Fore
SplineSet
422 78 m 0
 422 121 457 156 500 156 c 0
 543 156 578 121 578 78 c 0
 578 35 543 0 500 0 c 0
 457 0 422 35 422 78 c 0
422 366 m 0
 422 409 457 444 500 444 c 0
 543 444 578 409 578 366 c 0
 578 323 543 288 500 288 c 0
 457 288 422 323 422 366 c 0
EndSplineSet
EndChar
StartChar: semicolon
Encoding: 59 59 79
Width: 1000
Flags: MW
LayerCount: 2
Fore
SplineSet
416 78 m 4
 416 121 446 156 492 156 c 4
 550 156 584 99 584 31 c 4
 584 -108 479 -194 464 -194 c 4
 456 -194 446 -184 446 -174 c 4
 446 -168 448 -165 454 -160 c 4
 474 -143 536 -93 548 8 c 4
 548 12 548 16 548 20 c 5
 548 20 546 18 544 17 c 4
 536 11 519 0 494 0 c 4
 443 0 416 38 416 78 c 4
416 367 m 0
 416 414 456 445 494 445 c 0
 535 445 572 412 572 367 c 0
 572 328 540 289 494 289 c 0
 453 289 416 322 416 367 c 0
EndSplineSet
EndChar
StartChar: less
Encoding: 60 60 80
Width: 1000
Flags: MW
LayerCount: 2
Fore
SplineSet
150 250 m 1
 151 262 162 268 172 272 c 2
 812 566 l 2
 819 569 825 572 832 572 c 0
 841 572 850 565 850 555 c 0
 850 542 835 536 830 533 c 2
 280 281 l 2
 212 250 l 1
 282 218 l 2
 830 -34 l 2
 835 -36 850 -43 850 -56 c 0
 850 -66 841 -73 832 -73 c 0
 825 -73 819 -69 812 -66 c 2
 172 227 l 2
 163 232 151 238 150 250 c 1
EndSplineSet
EndChar
StartChar: equal
Encoding: 61 61 81
Width: 1000
Flags: MW
LayerCount: 2
Fore
SplineSet
118 139 m 0
 118 155 134 157 147 157 c 2
 856 157 l 1
 878 156 882 146 882 139 c 0
 882 124 869 121 857 120 c 1
 146 120 l 2
 122 120 118 131 118 139 c 0
118 361 m 0
 118 376 133 379 147 379 c 2
 856 379 l 2
 877 379 882 368 882 362 c 0
 882 346 869 343 857 343 c 2
 146 343 l 2
 122 343 118 354 118 361 c 0
EndSplineSet
EndChar
StartChar: greater
Encoding: 62 62 82
Width: 1000
Flags: MW
LayerCount: 2
Fore
SplineSet
151 -56 m 0
 151 -47 156 -41 171 -34 c 2
 705 211 l 6
 789 250 l 1
 760 262 732 276 703 289 c 2
 171 533 l 2
 166 536 151 542 151 555 c 0
 151 565 159 572 168 572 c 0
 175 572 182 569 189 566 c 2
 828 272 l 2
 837 268 849 262 849 250 c 0
 849 238 837 232 828 228 c 2
 189 -66 l 2
 182 -69 175 -73 168 -73 c 0
 159 -73 151 -66 151 -56 c 0
EndSplineSet
EndChar
StartChar: question
Encoding: 63 63 83
Width: 1000
Flags: MW
LayerCount: 2
Fore
SplineSet
271 573 m 0
 271 594 277 614 291 633 c 0
 319 671 377 700 490 700 c 0
 536 700 729 700 729 571 c 0
 729 508 681 481 661 469 c 0
 623 447 510 386 510 283 c 2
 510 256 l 2
 510 232 510 226 480 226 c 0
 451 226 451 231 451 253 c 2
 451 291 l 2
 451 356 486 433 564 498 c 0
 589 518 599 534 599 578 c 0
 599 625 597 664 482 664 c 0
 424 664 377 652 351 633 c 1
 353 632 398 619 398 572 c 0
 398 531 365 509 333 509 c 0
 308 509 271 525 271 573 c 0
404 78 m 0
 404 121 437 156 480 156 c 0
 523 156 558 121 558 78 c 0
 558 35 523 0 480 0 c 0
 437 0 404 35 404 78 c 0
EndSplineSet
EndChar
StartChar: at
Encoding: 64 64 84
Width: 1000
Flags: MW
LayerCount: 2
Fore
SplineSet
117.5 347 m 0
 117.5 546 254.5 700 500.5 700 c 0
 734.5 700 882.5 558 882.5 345 c 0
 882.5 285 873.5 128 752.5 128 c 0
 726.5 128 658.5 132 627.5 173 c 1
 589.5 141 544.5 128 498.5 128 c 0
 361.5 128 270.5 216 270.5 347 c 0
 270.5 479 362.5 566 498.5 566 c 0
 575.5 566 631.5 529 660.5 482 c 1
 660.5 482 l 1
 699.5 482 l 2
 728.5 482 729.5 480 729.5 453 c 2
 729.5 223 l 2
 729.5 209 729.5 164 762.5 164 c 0
 822.5 164 835.5 250 835.5 340 c 0
 835.5 561 682.5 664 499.5 664 c 0
 289.5 664 164.5 533 164.5 347 c 0
 164.5 177 272.5 30 503.5 30 c 0
 603.5 30 702.5 50 796.5 86 c 0
 812.5 93 814.5 93 830.5 93 c 2
 854.5 93 l 2
 869.5 93 882.5 93 882.5 79 c 0
 882.5 74 879.5 70 879.5 69 c 0
 864.5 61 796.5 34 699.5 14 c 4
 643.5 3 576.5 -6 504.5 -6 c 0
 237.5 -6 117.5 163 117.5 347 c 0
384.5 347 m 0
 384.5 219 441.5 164 501.5 164 c 0
 535.5 164 584.5 178 615.5 222 c 1
 615.5 222 l 1
 615.5 472 l 1
 615.5 472 l 1
 584.5 515 536.5 530 501.5 530 c 0
 441.5 530 384.5 476 384.5 347 c 0
EndSplineSet
EndChar
StartChar: A
Encoding: 65 65 10
Width: 1000
Flags: MW
LayerCount: 2
Fore
SplineSet
107 0 m 1
 107 47 l 1
 128 47 l 2
 204 47 207 55 213 70 c 2
 461 672 l 2
 468 690 472 698 500 698 c 0
 517 698 529 698 540 672 c 2
 796 47 l 1
 893 47 l 5
 893 47 l 1
 893 0 l 1
 858 3 770 3 730 3 c 0
 687 3 592 3 554 0 c 1
 554 47 l 1
 649 47 l 1
 649 47 l 1
 589 193 l 1
 321 193 l 1
 271 72 l 2
 270 71 267 61 267 60 c 0
 267 47 354 47 356 47 c 1
 356 0 l 1
 319 3 263 3 224 3 c 0
 193 3 145 1 107 0 c 1
341 240 m 1
 569 240 l 1
 455 518 l 1
 341 240 l 1
EndSplineSet
EndChar
StartChar: B
Encoding: 66 66 11
Width: 1000
Flags: MW
LayerCount: 2
Fore
SplineSet
143 0 m 1
 143 47 l 1
 143 47 l 5
 251 47 l 1
 251 639 l 1
 143 639 l 1
 143 639 l 1
 143 686 l 1
 577 686 l 2
 738 686 825 606 825 514 c 0
 825 437 760 377 652 358 c 1
 771 349 857 282 857 186 c 0
 857 88 773 0 607 0 c 2
 143 0 l 1
382 47 m 1
 382 47 l 1
 566 47 l 2
 710 47 710 175 710 187 c 0
 710 198 710 254 677 296 c 0
 643 339 596 339 576 339 c 2
 382 339 l 1
 382 47 l 1
382 375 m 1
 538 375 l 2
 635 375 683 437 683 514 c 0
 683 560 665 639 564 639 c 2
 382 639 l 1
 382 639 l 1
 382 375 l 1
EndSplineSet
EndChar
StartChar: C
Encoding: 67 67 12
Width: 1000
Flags: MW
LayerCount: 2
Fore
SplineSet
149 343 m 0
 149 548 302 697 551 697 c 0
 619 697 686 679 748 629 c 1
 814 688 l 2
 822 695 824 697 833 697 c 0
 851 697 851 688 851 669 c 2
 851 454 l 2
 851 428 850 426 824 426 c 0
 801 426 800 428 797 447 c 0
 775 574 680 650 572 650 c 0
 520 650 433 639 368 573 c 1
 305 507 302 399 302 343 c 0
 302 253 314 178 361 121 c 1
 413 60 497 36 575 36 c 0
 676 36 797 97 804 231 c 0
 805 248 814 248 827 248 c 0
 844 248 851 247 851 227 c 0
 851 112 738 -11 551 -11 c 0
 302 -11 149 138 149 343 c 0
EndSplineSet
EndChar
StartChar: D
Encoding: 68 68 13
Width: 1000
Flags: MW
LayerCount: 2
Fore
SplineSet
111 0 m 1
 111 47 l 1
 111 47 l 5
 219 47 l 1
 219 639 l 1
 111 639 l 1
 111 639 l 1
 111 686 l 1
 541 686 l 2
 739 686 889 557 889 337 c 0
 889 123 739 0 542 0 c 2
 111 0 l 1
355 47 m 1
 355 47 l 1
 501 47 l 2
 562 47 650 63 698 131 c 0
 730 176 742 229 742 338 c 0
 742 431 734 499 699 550 c 0
 650 620 567 639 501 639 c 2
 355 639 l 1
 355 639 l 1
 355 47 l 1
EndSplineSet
EndChar
StartChar: E
Encoding: 69 69 14
Width: 1000
Flags: MW
LayerCount: 2
Fore
SplineSet
158 0 m 1
 158 47 l 1
 158 47 l 1
 266 47 l 1
 266 47 l 1
 266 633 l 1
 266 633 l 1
 158 633 l 1
 158 633 l 1
 158 680 l 1
 779 680 l 1
 810 439 l 1
 763 439 l 1
 747 560 721 633 560 633 c 2
 408 633 l 1
 408 633 l 1
 408 376 l 1
 463 376 l 2
 560 376 569 419 569 493 c 1
 616 493 l 1
 616 212 l 1
 569 212 l 1
 569 286 559 329 463 329 c 2
 408 329 l 1
 408 47 l 1
 408 47 l 1
 560 47 l 2
 745 47 773 136 795 274 c 1
 842 274 l 1
 796 0 l 1
 158 0 l 1
EndSplineSet
EndChar
StartChar: F
Encoding: 70 70 15
Width: 1000
Flags: MW
LayerCount: 2
Fore
SplineSet
182 0 m 1
 182 47 l 1
 182 47 l 1
 290 47 l 1
 290 47 l 1
 290 633 l 1
 290 633 l 1
 182 633 l 1
 182 633 l 1
 182 680 l 1
 787 680 l 1
 818 439 l 1
 771 439 l 1
 756 556 733 633 572 633 c 2
 432 633 l 1
 432 633 l 1
 432 364 l 1
 482 364 l 2
 579 364 587 407 587 481 c 1
 634 481 l 1
 634 200 l 1
 587 200 l 1
 587 274 578 317 482 317 c 2
 432 317 l 1
 432 47 l 1
 432 47 l 1
 567 47 l 1
 567 47 l 1
 567 0 l 1
 523 3 414 3 365 3 c 0
 321 3 220 3 182 0 c 1
EndSplineSet
EndChar
StartChar: G
Encoding: 71 71 16
Width: 1000
Flags: MW
LayerCount: 2
Fore
SplineSet
110 343 m 0
 110 550 264 697 510 697 c 0
 562 697 635 687 708 629 c 1
 774 688 l 2
 782 695 783 697 792 697 c 0
 810 697 810 688 810 669 c 2
 810 454 l 2
 810 428 810 426 784 426 c 0
 761 426 759 428 756 447 c 0
 734 574 639 650 532 650 c 0
 436 650 360 613 320 563 c 1
 283 514 262 456 262 344 c 0
 262 253 275 182 318 127 c 0
 367 65 454 36 540 36 c 0
 572 36 604 42 630 57 c 0
 669 80 668 109 668 128 c 2
 668 229 l 1
 524 229 l 5
 524 229 l 1
 524 276 l 1
 578 273 672 273 730 273 c 0
 769 273 855 273 890 276 c 1
 890 229 l 1
 810 229 l 1
 810 28 l 2
 810 13 810 0 796 0 c 0
 789 0 729 26 698 53 c 1
 648 -9 545 -11 512 -11 c 0
 254 -11 110 144 110 343 c 0
EndSplineSet
EndChar
StartChar: H
Encoding: 72 72 17
Width: 1000
Flags: MW
LayerCount: 2
Fore
SplineSet
90 0 m 1
 90 47 l 1
 90 47 l 1
 198 47 l 1
 198 639 l 1
 90 639 l 1
 90 639 l 1
 90 686 l 1
 128 683 225 683 268 683 c 0
 311 683 410 683 448 686 c 1
 448 639 l 1
 448 639 l 1
 340 639 l 1
 340 380 l 1
 660 380 l 1
 660 639 l 1
 552 639 l 1
 552 639 l 1
 552 686 l 1
 590 683 689 683 732 683 c 0
 775 683 872 683 910 686 c 1
 910 639 l 1
 910 639 l 5
 802 639 l 1
 802 47 l 1
 910 47 l 1
 910 47 l 1
 910 0 l 1
 872 3 775 3 732 3 c 0
 689 3 590 3 552 0 c 1
 552 47 l 1
 552 47 l 1
 660 47 l 1
 660 333 l 1
 340 333 l 1
 340 47 l 1
 448 47 l 1
 448 47 l 1
 448 0 l 1
 410 3 311 3 268 3 c 0
 225 3 128 3 90 0 c 1
EndSplineSet
EndChar
StartChar: J
Encoding: 74 74 19
Width: 1000
Flags: MW
LayerCount: 2
Fore
SplineSet
248 114 m 0
 248 166 288 191 325 191 c 0
 358 191 401 168 401 114 c 0
 401 61 355 42 355 42 c 1
 386 28 419 25 436 25 c 0
 535 25 535 130 535 149 c 2
 535 639 l 1
 535 639 l 1
 394 639 l 1
 394 639 l 1
 394 686 l 1
 442 683 540 683 593 683 c 0
 632 683 717 683 752 686 c 1
 752 639 l 1
 671 639 l 1
 671 639 l 1
 671 150 l 2
 671 138 669 126 667 115 c 0
 647 33 559 -11 441 -11 c 0
 358 -11 294 14 265 57 c 0
 254 73 248 93 248 114 c 0
EndSplineSet
EndChar
StartChar: K
Encoding: 75 75 20
Width: 1000
Flags: MW
LayerCount: 2
Fore
SplineSet
94 0 m 1
 94 47 l 1
 94 47 l 1
 202 47 l 1
 202 639 l 1
 94 639 l 1
 94 639 l 1
 94 686 l 1
 132 683 229 683 272 683 c 0
 315 683 414 683 452 686 c 1
 452 639 l 1
 452 639 l 5
 344 639 l 1
 344 319 l 1
 714 628 l 1
 705 631 716 630 700 634 c 0
 675 639 655 639 642 639 c 1
 642 686 l 1
 678 683 750 683 788 683 c 0
 793 683 850 683 890 686 c 1
 890 639 l 1
 874 639 l 2
 844 639 802 639 780 621 c 2
 540 421 l 1
 810 67 l 2
 822 51 825 47 878 47 c 2
 906 47 l 1
 906 0 l 1
 869 3 800 3 760 3 c 0
 715 3 625 3 584 0 c 1
 584 47 l 1
 619 47 640 47 658 55 c 1
 655 61 655 63 650 69 c 2
 444 340 l 1
 344 257 l 1
 344 47 l 1
 452 47 l 1
 452 47 l 1
 452 0 l 1
 414 3 315 3 272 3 c 0
 229 3 132 3 94 0 c 1
EndSplineSet
EndChar
StartChar: L
Encoding: 76 76 21
Width: 1000
Flags: MW
LayerCount: 2
Fore
SplineSet
198 0 m 1
 198 47 l 1
 198 47 l 1
 306 47 l 1
 306 639 l 1
 198 639 l 1
 198 639 l 1
 198 686 l 1
 236 683 337 683 381 683 c 0
 430 683 539 683 583 686 c 1
 583 639 l 1
 583 639 l 5
 448 639 l 1
 448 47 l 1
 448 47 l 1
 551 47 l 2
 730 47 747 205 755 274 c 1
 802 274 l 1
 771 0 l 1
 198 0 l 1
EndSplineSet
EndChar
StartChar: M
Encoding: 77 77 22
Width: 1000
Flags: MW
LayerCount: 2
Fore
SplineSet
33 0 m 1
 33 47 l 1
 58 47 l 2
 86 47 83 47 107 50 c 0
 135 53 136 54 136 76 c 2
 136 639 l 1
 136 639 l 1
 33 639 l 1
 33 639 l 1
 33 686 l 1
 255 686 l 2
 275 686 283 686 294 661 c 2
 500 177 l 1
 701 661 l 2
 711 686 721 686 741 686 c 2
 967 686 l 1
 967 639 l 1
 967 639 l 1
 869 639 l 1
 869 639 l 1
 869 47 l 1
 869 47 l 1
 967 47 l 1
 967 47 l 1
 967 0 l 1
 931 3 843 3 806 3 c 0
 769 3 680 3 648 0 c 1
 648 47 l 1
 648 47 l 1
 745 47 l 1
 745 47 l 5
 745 639 l 1
 744 639 l 1
 493 24 l 2
 489 15 482 0 464 0 c 0
 454 0 444 5 436 25 c 2
 191 626 l 1
 190 626 l 1
 190 76 l 2
 190 54 191 53 217 50 c 0
 233 48 249 47 265 47 c 2
 287 47 l 1
 287 0 l 1
 250 3 204 3 166 3 c 0
 128 3 71 3 33 0 c 1
EndSplineSet
EndChar
StartChar: N
Encoding: 78 78 23
Width: 1000
Flags: MW
LayerCount: 2
Fore
SplineSet
90 0 m 1
 90 47 l 1
 114 47 l 2
 142 47 144 47 168 50 c 0
 196 53 198 54 198 76 c 2
 198 639 l 1
 198 639 l 5
 90 639 l 1
 90 639 l 1
 90 686 l 1
 318 686 l 2
 339 686 341 685 352 673 c 2
 750 205 l 1
 750 610 l 2
 750 632 749 633 720 636 c 0
 702 638 684 639 666 639 c 2
 642 639 l 1
 642 686 l 1
 683 683 734 683 776 683 c 0
 815 683 872 683 910 686 c 1
 910 639 l 1
 886 639 l 2
 858 639 856 639 832 636 c 0
 804 633 802 632 802 610 c 2
 802 32 l 2
 802 9 803 0 776 0 c 0
 760 0 758 1 748 13 c 2
 250 599 l 1
 250 599 l 1
 250 76 l 2
 250 54 251 53 280 50 c 0
 298 48 316 47 334 47 c 2
 358 47 l 1
 358 0 l 1
 317 3 266 3 224 3 c 0
 185 3 128 3 90 0 c 1
EndSplineSet
EndChar
StartChar: O
Encoding: 79 79 24
Width: 1000
Flags: MW
LayerCount: 2
Fore
SplineSet
132 339 m 0
 132 549 271 697 500 697 c 0
 722 697 868 555 868 339 c 0
 868 134 730 -11 500 -11 c 0
 273 -11 132 132 132 339 c 0
286 354 m 0
 286 268 293 197 326 135 c 0
 367 59 441 31 500 31 c 0
 554 31 623 53 668 126 c 0
 710 195 714 284 714 354 c 0
 714 422 710 499 672 563 c 0
 632 629 564 657 500 657 c 0
 441 657 373 632 332 571 c 1
 288 503 286 418 286 354 c 0
EndSplineSet
EndChar
StartChar: P
Encoding: 80 80 25
Width: 1000
Flags: MW
LayerCount: 2
Fore
SplineSet
159 0 m 1
 159 47 l 1
 159 47 l 1
 267 47 l 1
 267 639 l 1
 159 639 l 1
 159 639 l 1
 159 686 l 1
 576 686 l 2
 742 686 841 601 841 491 c 0
 841 374 725 302 586 302 c 2
 409 302 l 1
 409 47 l 1
 517 47 l 1
 517 47 l 1
 517 0 l 1
 479 3 381 3 338 3 c 0
 295 3 197 3 159 0 c 1
403 343 m 1
 537 343 l 2
 688 343 688 420 688 491 c 0
 688 563 688 639 538 639 c 2
 403 639 l 1
 403 639 l 5
 403 343 l 1
EndSplineSet
EndChar
StartChar: Q
Encoding: 81 81 26
Width: 1000
Flags: MW
LayerCount: 2
Fore
SplineSet
130 339 m 0
 130 549 269 697 498 697 c 0
 720 697 864 555 864 339 c 0
 864 230 822 82 658 18 c 1
 697 -41 727 -41 750 -41 c 0
 767 -41 828 -40 834 -2 c 0
 835 5 837 18 852 18 c 0
 870 18 870 0 870 -8 c 0
 870 -76 836 -194 734 -194 c 0
 641 -194 620 -115 592 -2 c 1
 552 -10 520 -11 498 -11 c 0
 266 -11 130 135 130 339 c 0
276 340 m 0
 276 262 279 110 402 51 c 1
 400 56 400 67 400 73 c 0
 400 121 445 155 496 155 c 0
 563 155 600 102 622 69 c 1
 718 135 718 284 718 340 c 0
 718 399 714 485 676 552 c 0
 628 637 550 657 496 657 c 0
 451 657 366 642 314 546 c 1
 277 475 276 380 276 340 c 0
436 73 m 0
 436 61 443 29 498 29 c 0
 525 29 555 34 580 45 c 1
 560 108 526 119 498 119 c 0
 465 119 436 100 436 73 c 0
EndSplineSet
EndChar
StartChar: R
Encoding: 82 82 27
Width: 1000
Flags: MW
LayerCount: 2
Fore
SplineSet
110 0 m 1
 110 47 l 1
 110 47 l 1
 218 47 l 1
 218 47 l 1
 218 639 l 1
 218 639 l 1
 110 639 l 1
 110 639 l 1
 110 686 l 1
 490 686 l 2
 678 686 788 602 788 501 c 0
 788 435 738 370 622 340 c 1
 665 324 720 293 734 223 c 0
 735 218 742 149 744 138 c 0
 749 96 758 25 818 25 c 0
 848 25 877 47 882 94 c 0
 883 107 885 117 906 117 c 0
 916 117 930 117 930 95 c 0
 930 79 917 -11 810 -11 c 0
 769 -11 706 -7 662 15 c 0
 592 49 592 98 592 164 c 0
 592 237 592 256 560 291 c 0
 529 325 486 325 472 325 c 2
 354 325 l 1
 354 47 l 1
 354 47 l 1
 462 47 l 1
 462 47 l 1
 462 0 l 1
 426 3 328 3 286 3 c 0
 244 3 146 3 110 0 c 1
354 361 m 1
 470 361 l 2
 635 361 636 444 636 500 c 0
 636 561 633 639 472 639 c 2
 354 639 l 1
 354 639 l 1
 354 361 l 1
EndSplineSet
EndChar
StartChar: S
Encoding: 83 83 28
Width: 1000
Flags: MW
LayerCount: 2
Fore
SplineSet
245 17 m 2
 245 199 l 2
 245 222 245 228 269 228 c 0
 291 228 291 223 292 205 c 0
 295 150 318 112 349 87 c 4
 402 44 480 36 528 36 c 0
 632 36 658 105 658 153 c 0
 658 199 633 225 618 240 c 0
 596 261 579 264 491 283 c 0
 382 307 348 314 299 363 c 0
 278 385 245 431 245 496 c 0
 245 601 317 697 469 697 c 0
 517 697 582 688 640 642 c 1
 685 686 l 2
 696 696 697 697 705 697 c 0
 723 697 723 688 723 669 c 2
 723 486 l 2
 723 463 723 458 699 458 c 0
 678 458 678 460 674 484 c 0
 651 620 550 654 470 654 c 0
 370 654 342 592 342 549 c 0
 342 488 398 454 438 445 c 2
 583 414 l 2
 674 395 755 314 755 203 c 0
 755 102 693 -11 528 -11 c 0
 487 -11 394 -5 328 44 c 1
 282 -2 l 2
 274 -9 272 -11 263 -11 c 0
 245 -11 245 -2 245 17 c 2
EndSplineSet
EndChar
StartChar: T
Encoding: 84 84 29
Width: 1000
Flags: MW
LayerCount: 2
Fore
SplineSet
142 434 m 1
 164 675 l 1
 836 675 l 1
 858 434 l 1
 810 434 l 1
 800 548 791 628 648 628 c 2
 572 628 l 1
 572 628 l 5
 572 47 l 1
 724 47 l 1
 724 47 l 1
 724 0 l 1
 670 3 559 3 500 3 c 0
 441 3 330 3 276 0 c 1
 276 47 l 1
 276 47 l 1
 430 47 l 1
 430 628 l 1
 430 628 l 1
 352 628 l 2
 208 628 199 547 190 434 c 1
 142 434 l 1
EndSplineSet
EndChar
StartChar: U
Encoding: 85 85 30
Width: 1000
Flags: MW
LayerCount: 2
Fore
SplineSet
97 639 m 1
 97 686 l 1
 135 683 233 683 276 683 c 0
 319 683 417 683 455 686 c 1
 455 639 l 1
 455 639 l 1
 347 639 l 1
 347 639 l 1
 347 223 l 2
 347 167 349 36 524 36 c 0
 633 36 742 85 742 233 c 2
 742 610 l 2
 742 632 741 633 712 636 c 0
 694 638 677 639 659 639 c 2
 634 639 l 1
 634 686 l 1
 675 683 727 683 769 683 c 0
 808 683 865 683 903 686 c 1
 903 639 l 1
 878 639 l 2
 850 639 848 639 824 636 c 0
 796 633 795 632 795 610 c 2
 795 229 l 2
 795 216 794 202 792 189 c 0
 775 82 689 -11 520 -11 c 0
 313 -11 205 98 205 231 c 2
 205 639 l 1
 205 639 l 1
 97 639 l 1
 97 639 l 1
EndSplineSet
EndChar
StartChar: W
Encoding: 87 87 32
Width: 1000
Flags: MW
LayerCount: 2
Fore
SplineSet
20 639 m 1
 20 686 l 1
 55 683 139 683 171 683 c 0
 205 683 286 683 316 686 c 1
 316 639 l 1
 240 639 l 1
 240 639 l 1
 376 221 l 1
 475 543 l 1
 447 639 l 1
 378 639 l 1
 378 686 l 1
 406 683 475 683 506 683 c 0
 540 683 621 683 651 686 c 1
 651 639 l 1
 574 639 l 1
 574 639 l 1
 711 221 l 1
 838 628 l 1
 838 628 l 1
 815 639 782 639 762 639 c 1
 762 686 l 1
 791 683 840 683 873 683 c 0
 918 683 953 685 980 686 c 1
 980 639 l 1
 964 639 943 639 923 637 c 0
 892 634 891 632 885 615 c 2
 695 18 l 2
 690 2 687 -8 667 -8 c 0
 647 -8 644 2 639 18 c 2
 500 468 l 1
 361 18 l 2
 356 2 353 -8 333 -8 c 0
 313 -8 310.11536725 2.03696953735 305 18 c 2
 106 639 l 1
 106 639 l 1
 20 639 l 1
EndSplineSet
EndChar
StartChar: X
Encoding: 88 88 33
Width: 1000
Flags: MW
LayerCount: 2
Fore
SplineSet
100 0 m 1
 100 47 l 1
 128 47 l 2
 148 47 170 48 190 50 c 0
 222 53 223 55 232 67 c 2
 434 332 l 1
 212 639 l 1
 114 639 l 5
 114 639 l 1
 114 686 l 1
 149 683 236 683 276 683 c 0
 321 683 417 683 458 686 c 1
 458 639 l 1
 374 639 l 1
 374 639 l 1
 518 442 l 1
 650 617 l 2
 652 620 657 626 658 628 c 1
 623 639 584 639 566 639 c 1
 566 686 l 1
 602 683 679 683 718 683 c 0
 761 683 810 683 852 686 c 1
 852 639 l 1
 822 639 l 2
 794 639 788 639 764 636 c 0
 729 633 729 632 718 618 c 2
 550 397 l 1
 802 47 l 1
 900 47 l 1
 900 47 l 1
 900 0 l 1
 865 3 778 3 738 3 c 0
 693 3 599 3 558 0 c 1
 558 47 l 1
 640 47 l 1
 640 47 l 1
 466 288 l 1
 302 69 l 2
 300 66 295 60 294 58 c 1
 329 47 368 47 386 47 c 1
 386 0 l 1
 350 3 273 3 234 3 c 0
 191 3 142 3 100 0 c 1
EndSplineSet
EndChar
StartChar: Y
Encoding: 89 89 34
Width: 1000
Flags: MW
LayerCount: 2
Fore
SplineSet
85 639 m 1
 85 686 l 1
 120 683 210 683 250 683 c 0
 295 683 392 683 433 686 c 1
 433 639 l 1
 348 639 l 1
 348 639 l 1
 551 342 l 1
 738 617 l 2
 743 623 743 625 745 629 c 1
 719 639 692 639 669 639 c 1
 669 686 l 1
 706 683 762 683 801 683 c 0
 829 683 875 685 915 686 c 1
 915 639 l 1
 894 639 l 2
 877 639 859 638 842 636 c 0
 820 633 812 633 803 619 c 2
 568 274 l 1
 568 47 l 1
 677 47 l 1
 677 47 l 1
 677 0 l 1
 639 3 543 3 500 3 c 0
 458 3 360 3 324 0 c 1
 324 47 l 1
 324 47 l 5
 432 47 l 1
 432 274 l 1
 183 639 l 1
 85 639 l 1
 85 639 l 1
EndSplineSet
EndChar
StartChar: Z
Encoding: 90 90 35
Width: 1000
Flags: MW
LayerCount: 2
Fore
SplineSet
210 26 m 0
 210 37 210 40 218 52 c 2
 618 639 l 1
 488 639 l 2
 348 639 280 578 272 445 c 1
 226 445 l 1
 238 686 l 1
 752 686 l 2
 773 686 784 686 784 661 c 0
 784 650 784 649 776 637 c 2
 376 51 l 1
 516 51 l 2
 721 51 736 173 744 284 c 1
 790 284 l 1
 772 0 l 1
 242 0 l 2
 220 0 210 0 210 26 c 0
EndSplineSet
EndChar
StartChar: bracketleft
Encoding: 91 91 85
Width: 1000
Flags: MW
LayerCount: 2
Fore
SplineSet
787 -250 m 1
 787 750 l 1
 976 750 l 1
 976 714 l 1
 896 714 l 1
 896 -214 l 1
 976 -214 l 1
 976 -250 l 1
 787 -250 l 1
EndSplineSet
EndChar
StartChar: backslash
Encoding: 92 92 86
Width: 1000
Flags: MW
LayerCount: 2
Fore
SplineSet
64 731 m 4
 64 740 72 748 81 748 c 0
 95 748 109 732 119 721 c 2
 919 -197 l 2
 933 -213 935 -224 935 -231 c 0
 935 -240 927 -249 918 -249 c 0
 903 -249 886 -228 879 -221 c 2
 76 706 l 2
 71 712 64 722 64 731 c 4
EndSplineSet
EndChar
StartChar: bracketright
Encoding: 93 93 87
Width: 1000
Flags: MW
LayerCount: 2
Fore
SplineSet
25 -214 m 1
 255 -214 l 1
 255 714 l 1
 25 714 l 1
 25 750 l 1
 364 750 l 1
 364 -250 l 1
 25 -250 l 1
 25 -214 l 1
EndSplineSet
EndChar
StartChar: asciicircum
Encoding: 94 94 88
Width: 1000
Flags: MW
LayerCount: 2
Fore
SplineSet
282 502 m 1
 500 632 l 1
 718 502 l 1
 696 460 l 1
 500 550 l 1
 304 460 l 1
 282 502 l 1
EndSplineSet
EndChar
StartChar: underscore
Encoding: 95 95 89
Width: 1000
Flags: MW
LayerCount: 2
Fore
SplineSet
96 -278 m 0
 96 -267 102 -247 135 -247 c 2
 863 -247 l 2
 897 -247 903 -265 903 -278 c 0
 903 -290 897 -307 863 -308 c 1
 135 -308 l 2
 100 -308 96 -287 96 -278 c 0
EndSplineSet
EndChar
StartChar: grave
Encoding: 96 96 90
Width: 1000
Flags: MW
LayerCount: 2
Fore
SplineSet
390 599 m 0
 390 630 417 662 450 662 c 0
 476 662 481 652 570 570 c 0
 583 558 597 547 610 534 c 1
 584 494 l 1
 415 552 390 553 390 599 c 0
EndSplineSet
EndChar
StartChar: a
Encoding: 97 97 36
Width: 1000
Flags: MW
LayerCount: 2
Fore
SplineSet
237 108 m 0
 237 186 310 224 389 244 c 0
 457 261 529 264 562 265 c 1
 562 299 l 2
 562 375 527 417 452 417 c 0
 440 417 408 416 380 410 c 1
 383 408 402 391 402 361 c 0
 402 319 370 298 339 298 c 0
 312 298 277 317 277 361 c 0
 277 401 302 423 335 436 c 4
 374 451 425 453 456 453 c 0
 531 453 587 437 623 409 c 0
 659 382 676 343 676 299 c 2
 676 84 l 2
 676 61 676 48 737 47 c 0
 750 47 763 47 763 24 c 0
 763 0 751 0 731 0 c 2
 683 0 l 2
 579 0 579 46 579 77 c 1
 557 35 510 -6 430 -6 c 0
 361 -6 237 12 237 108 c 0
354 109 m 0
 354 65 394 30 445 30 c 0
 470 30 562 43 562 139 c 2
 562 234 l 1
 512 231 354 217 354 109 c 0
EndSplineSet
EndChar
StartChar: b
Encoding: 98 98 37
Width: 1000
Flags: MW
LayerCount: 2
Fore
SplineSet
218 639 m 1
 218 686 l 1
 396 694 l 1
 396 401 l 1
 420 421 469 450 542 450 c 0
 687 450 782 356 782 223 c 0
 782 84 679 -6 530 -6 c 0
 441 -6 392 48 384 56 c 1
 334 0 l 1
 288 0 l 1
 288 600 l 2
 288 639 280 639 218 639 c 1
402 99 m 1
 402 99 l 1
 412 84 450 30 520 30 c 0
 552 30 599 41 628 82 c 1
 654 121 654 176 654 223 c 0
 654 263 653 320 630 361 c 0
 613 392 584 414 532 414 c 0
 477 414 429 385 402 350 c 1
 402 350 l 5
 402 99 l 1
EndSplineSet
EndChar
StartChar: c
Encoding: 99 99 38
Width: 1000
Flags: MW
LayerCount: 2
Fore
SplineSet
280 222 m 0
 280 338 354 453 533 453 c 0
 591 453 707 447 707 361 c 0
 707 319 675 298 644 298 c 0
 617 298 582 317 582 361 c 0
 582 370 584 391 602 407 c 1
 589 410 572 413 537 413 c 0
 408 413 408 283 408 227 c 0
 408 181 408 34 547 34 c 0
 598 34 646 53 672 116 c 0
 677 129 678 131 696 131 c 0
 706 131 720 131 720 117 c 0
 720 110 690 -6 528 -6 c 0
 374 -6 280 89 280 222 c 0
EndSplineSet
EndChar
StartChar: d
Encoding: 100 100 39
Width: 1000
Flags: MW
LayerCount: 2
Fore
SplineSet
218 221 m 0
 218 362 324 450 470 450 c 0
 503 450 554 444 604 405 c 1
 604 600 l 2
 604 639 598 639 536 639 c 1
 536 686 l 1
 712 694 l 1
 712 86 l 2
 712 47 720 47 782 47 c 1
 782 0 l 1
 598 -6 l 1
 598 43 l 1
 567 18 519 -6 458 -6 c 0
 310 -6 218 89 218 221 c 0
346 221 m 0
 346 180 346 122 370 80 c 0
 388 51 418 30 468 30 c 0
 544 30 585 85 598 103 c 1
 598 103 l 5
 598 353 l 1
 598 353 l 1
 576 382 537 414 480 414 c 0
 449 414 401 404 372 362 c 0
 346 323 346 269 346 221 c 0
EndSplineSet
EndChar
StartChar: e
Encoding: 101 101 40
Width: 1000
Flags: MW
LayerCount: 2
Fore
SplineSet
269 225 m 0
 269 350 356 453 516 453 c 0
 585 453 638 435 675 399 c 0
 725 349 731 276 731 245 c 0
 731 218 721 218 699 218 c 2
 397 218 l 1
 397 186 397 123 431 80 c 4
 452 53 485 34 539 34 c 0
 604 34 661 66 682 114 c 0
 688 130 690 135 707 135 c 0
 712 135 731 135 731 117 c 0
 731 100 688 -6 530 -6 c 0
 369 -6 269 91 269 225 c 0
397 251 m 1
 636 251 l 1
 635 286 633 417 516 417 c 0
 487 417 447 405 421 365 c 0
 400 332 399 290 397 251 c 1
EndSplineSet
EndChar
StartChar: f
Encoding: 102 102 41
Width: 1000
Flags: MW
LayerCount: 2
Fore
SplineSet
322.5 397 m 1
 322.5 444 l 1
 397.5 444 l 1
 397.5 545 l 2
 397.5 658 505.5 700 603.5 700 c 0
 681.5 700 717.5 655 717.5 613 c 0
 717.5 572 685.5 551 655.5 551 c 0
 629.5 551 594.5 570 594.5 613 c 0
 594.5 632 602.5 651 617.5 662 c 1
 610.5 664 605.5 664 600.5 664 c 0
 575.5 664 499.5 655 499.5 545 c 2
 499.5 444 l 1
 620.5 444 l 1
 620.5 397 l 1
 505.5 397 l 1
 505.5 47 l 5
 505.5 47 l 1
 592.5 47 l 1
 592.5 47 l 1
 592.5 0 l 1
 556.5 3 492.5 3 454.5 3 c 0
 408.5 3 363.5 1 328.5 0 c 1
 328.5 47 l 1
 397.5 47 l 1
 397.5 47 l 1
 397.5 397 l 1
 322.5 397 l 1
EndSplineSet
EndChar
StartChar: h
Encoding: 104 104 43
Width: 1000
Flags: MW
LayerCount: 2
Fore
SplineSet
215 0 m 1
 215 47 l 1
 284 47 l 1
 284 600 l 2
 284 639 277 639 215 639 c 1
 215 686 l 1
 392 694 l 1
 392 354 l 1
 393 354 l 1
 415 392 466 450 562 450 c 0
 615 450 655 439 681 413 c 4
 704 390 716 355 716 306 c 2
 716 47 l 1
 785 47 l 1
 785 0 l 1
 757 1 698 3 659 3 c 0
 621 3 561 1 533 0 c 1
 533 47 l 1
 602 47 l 1
 602 317 l 2
 602 393 581 414 547 414 c 0
 484 414 398 365 398 256 c 2
 398 47 l 1
 467 47 l 1
 467 0 l 1
 439 1 380 3 341 3 c 0
 303 3 243 1 215 0 c 1
EndSplineSet
EndChar
StartChar: i
Encoding: 105 105 44
Width: 1000
Flags: MW
LayerCount: 2
Fore
SplineSet
380.5 0 m 1
 380.5 47 l 1
 449.5 47 l 1
 449.5 47 l 1
 449.5 356 l 2
 449.5 395 442.5 395 383.5 395 c 1
 383.5 442 l 1
 557.5 450 l 1
 557.5 47 l 5
 557.5 47 l 1
 619.5 47 l 1
 619.5 0 l 1
 583.5 1 532.5 3 502.5 3 c 0
 460.5 3 411.5 1 380.5 0 c 1
411.5 617 m 0
 411.5 660 446.5 695 489.5 695 c 0
 531.5 695 567.5 661 567.5 617 c 0
 567.5 573 531.5 539 489.5 539 c 0
 446.5 539 411.5 574 411.5 617 c 0
EndSplineSet
EndChar
StartChar: j
Encoding: 106 106 45
Width: 1000
Flags: MW
LayerCount: 2
Fore
SplineSet
288.5 -109 m 0
 288.5 -73 313.5 -46 351.5 -46 c 0
 387.5 -46 413.5 -73 413.5 -108 c 0
 413.5 -123 408.5 -144 389.5 -158 c 1
 404.5 -162 412.5 -164 428.5 -164 c 0
 488.5 -164 503.5 -92 503.5 -42 c 2
 503.5 355 l 2
 503.5 376 503.5 389 481.5 393 c 0
 466.5 395 444.5 395 427.5 395 c 1
 427.5 442 l 1
 611.5 450 l 1
 611.5 -42 l 2
 611.5 -148 516.5 -200 430.5 -200 c 0
 348.5 -200 288.5 -166 288.5 -109 c 0
455.5 617 m 0
 455.5 660 490.5 695 533.5 695 c 0
 576.5 695 611.5 660 611.5 617 c 0
 611.5 574 576.5 539 533.5 539 c 0
 490.5 539 455.5 574 455.5 617 c 0
EndSplineSet
EndChar
StartChar: k
Encoding: 107 107 46
Width: 1000
Flags: MW
LayerCount: 2
Fore
SplineSet
225 0 m 1
 225 47 l 1
 294 47 l 1
 294 600 l 2
 294 639 287 639 225 639 c 1
 225 686 l 1
 402 694 l 1
 402 237 l 1
 591 386 l 5
 591 386 l 1
 583 394 580 397 557 397 c 1
 557 444 l 1
 580 443 645 441 672 441 c 0
 698 441 723 441 750 444 c 1
 750 397 l 1
 683 397 674 390 660 379 c 2
 530 278 l 1
 530 278 l 1
 699 67 l 2
 712 51 715 47 758 47 c 2
 775 47 l 1
 775 0 l 1
 741 2 707 3 671 3 c 0
 666 3 579 2 549 0 c 1
 549 47 l 1
 562 47 580 47 580 56 c 0
 580 59 564 79 555 91 c 2
 454 217 l 1
 434 203 426 197 397 174 c 1
 397 47 l 1
 466 47 l 1
 466 0 l 1
 430 1 382 3 345 3 c 0
 309 3 262 1 225 0 c 1
EndSplineSet
EndChar
StartChar: l
Encoding: 108 108 47
Width: 1000
Flags: MW
LayerCount: 2
Fore
SplineSet
377 0 m 1
 377 47 l 1
 446 47 l 1
 446 600 l 2
 446 639 439 639 377 639 c 1
 377 686 l 1
 554 694 l 1
 554 47 l 1
 623 47 l 1
 623 0 l 1
 589 1 543 3 500 3 c 0
 457 3 409 1 377 0 c 1
EndSplineSet
EndChar
StartChar: n
Encoding: 110 110 49
Width: 1000
Flags: MW
LayerCount: 2
Fore
SplineSet
215 0 m 1
 215 47 l 1
 284 47 l 1
 284 356 l 2
 284 395 277 395 215 395 c 1
 215 442 l 1
 387 450 l 1
 387 342 l 1
 413 393 466 450 562 450 c 0
 614 450 654 439 680 414 c 4
 704 391 716 356 716 306 c 2
 716 47 l 1
 785 47 l 1
 785 0 l 1
 757 1 698 3 659 3 c 0
 621 3 561 1 533 0 c 1
 533 47 l 1
 602 47 l 1
 602 317 l 2
 602 393 581 414 547 414 c 0
 484 414 398 365 398 256 c 2
 398 47 l 1
 467 47 l 1
 467 0 l 1
 439 1 380 3 341 3 c 0
 303 3 243 1 215 0 c 1
EndSplineSet
EndChar
StartChar: o
Encoding: 111 111 50
Width: 1000
Flags: MW
LayerCount: 2
Fore
SplineSet
245 218 m 0
 245 351 336 453 500 453 c 0
 663 453 755 352 755 218 c 0
 755 95 668 -6 500 -6 c 0
 333 -6 245 94 245 218 c 0
373 229 m 0
 373 184 373 133 391 94 c 0
 408 59 439 34 500 34 c 0
 555 34 586 54 604 84 c 4
 627 124 627 180 627 229 c 0
 627 277 627 332 606 366 c 0
 584 401 542 417 500 417 c 0
 451 417 409 396 390 359 c 0
 373 325 373 274 373 229 c 0
EndSplineSet
EndChar
StartChar: p
Encoding: 112 112 51
Width: 1000
Flags: MW
LayerCount: 2
Fore
SplineSet
218 -147 m 1
 288 -147 l 1
 288 -147 l 1
 288 357 l 2
 288 395 280 395 218 395 c 1
 218 442 l 1
 396 450 l 1
 396 401 l 1
 419 419 471 450 546 450 c 0
 690 450 782 356 782 223 c 0
 782 84 680 -6 530 -6 c 0
 489 -6 445 4 402 39 c 1
 402 39 l 1
 402 -147 l 1
 402 -147 l 1
 470 -147 l 1
 470 -194 l 1
 442 -193 383 -191 344 -191 c 0
 306 -191 246 -193 218 -194 c 1
 218 -147 l 1
402 117 m 2
 402 98 401 97 412 84 c 0
 457 30 504 30 518 30 c 0
 583 30 654 82 654 223 c 0
 654 349 597 410 530 410 c 0
 508 410 456 404 416 363 c 0
 402 349 402 348 402 329 c 2
 402 117 l 2
EndSplineSet
EndChar
StartChar: q
Encoding: 113 113 52
Width: 1000
Flags: MW
LayerCount: 2
Fore
SplineSet
218 222 m 0
 218 361 322 450 468 450 c 0
 528 450 583 420 618 371 c 1
 672 450 l 1
 712 450 l 1
 712 -147 l 5
 712 -147 l 1
 782 -147 l 1
 782 -194 l 1
 754 -193 695 -191 656 -191 c 0
 618 -191 558 -193 530 -194 c 1
 530 -147 l 1
 598 -147 l 1
 598 -147 l 1
 598 48 l 1
 552 8 507 -6 458 -6 c 0
 319 -6 218 81 218 222 c 0
346 221 m 0
 346 88 406 30 468 30 c 0
 498 30 550 41 590 100 c 0
 605 121 604 124 604 142 c 2
 604 281 l 2
 604 331 556 410 480 410 c 0
 420 410 346 363 346 221 c 0
EndSplineSet
EndChar
StartChar: r
Encoding: 114 114 53
Width: 1000
Flags: MW
LayerCount: 2
Fore
SplineSet
317.5 0 m 1
 317.5 47 l 1
 386.5 47 l 1
 386.5 356 l 2
 386.5 395 379.5 395 317.5 395 c 1
 317.5 442 l 1
 483.5 450 l 1
 483.5 337 l 1
 506.5 400 546.5 450 616.5 450 c 0
 668.5 450 722.5 421 722.5 368 c 0
 722.5 328 690.5 307 661.5 307 c 0
 632.5 307 600.5 327 600.5 368 c 0
 600.5 397 618.5 413 619.5 414 c 1
 617.5 414 615.5 414 613.5 414 c 0
 518.5 409 494.5 290 494.5 222 c 2
 494.5 47 l 1
 581.5 47 l 1
 581.5 47 l 1
 581.5 0 l 1
 545.5 3 481.5 3 443.5 3 c 0
 397.5 3 352.5 1 317.5 0 c 1
EndSplineSet
EndChar
StartChar: s
Encoding: 115 115 54
Width: 1000
Flags: MW
LayerCount: 2
Fore
SplineSet
312 22 m 2
 312 131 l 2
 312 154 312 160 336 160 c 0
 350 160 355 160 360 146 c 1
 372 103 398 30 504 30 c 0
 526 30 618 30 618 105 c 0
 618 164 542 177 506 183 c 0
 429 197 392 203 352 238 c 0
 332 255 312 282 312 322 c 0
 312 453 466 453 496 453 c 0
 536 453 570 447 596 434 c 1
 606 439 614 443 620 445 c 0
 637 453 639 453 642 453 c 0
 660 453 660 444 660 425 c 2
 660 345 l 2
 660 322 660 317 636 317 c 0
 615 317 613 322 612 337 c 0
 610 364 600 384 582 398 c 4
 562 413 533 421 494 421 c 0
 475 421 382 421 382 359 c 0
 382 312 447 301 484 294 c 0
 562 281 595 275 634 246 c 1
 669 218 688 183 688 140 c 0
 688 -6 535 -6 504 -6 c 0
 484 -6 432 -6 386 26 c 1
 383 24 361 9 360 9 c 0
 339 -6 337 -6 330 -6 c 0
 312 -6 312 3 312 22 c 2
EndSplineSet
EndChar
StartChar: t
Encoding: 116 116 55
Width: 1000
Flags: MW
LayerCount: 2
Fore
SplineSet
339.5 397 m 1
 339.5 433 l 1
 438.5 436 487.5 535 488.5 635 c 1
 535.5 635 l 1
 535.5 444 l 1
 681.5 444 l 1
 681.5 397 l 1
 535.5 397 l 1
 535.5 121 l 2
 535.5 98 535.5 34 593.5 34 c 0
 621.5 34 653.5 58 653.5 126 c 2
 653.5 177 l 1
 700.5 177 l 1
 700.5 124 l 2
 700.5 51 655.5 -6 579.5 -6 c 0
 508.5 -6 421.5 16 421.5 123 c 2
 421.5 397 l 1
 339.5 397 l 1
EndSplineSet
EndChar
StartChar: u
Encoding: 117 117 56
Width: 1000
Flags: MW
LayerCount: 2
Fore
SplineSet
215 395 m 1
 215 442 l 1
 398 450 l 1
 398 109 l 2
 398 80 399 59 412 46 c 4
 423 35 443 30 478 30 c 0
 551 30 602 83 602 165 c 2
 602 356 l 2
 602 395 595 395 533 395 c 1
 533 442 l 1
 716 450 l 1
 716 86 l 2
 716 47 723 47 785 47 c 1
 785 0 l 1
 608 -6 l 1
 608 72 l 1
 562 -6 490 -6 464 -6 c 0
 427 -6 393 -3 364 6 c 0
 316 22 284 56 284 123 c 2
 284 356 l 2
 284 395 277 395 215 395 c 1
EndSplineSet
EndChar
StartChar: w
Encoding: 119 119 58
Width: 1000
Flags: MW
LayerCount: 2
Fore
SplineSet
110 397 m 1
 110 444 l 1
 144 443 188 441 219 441 c 0
 260 441 301 442 342 444 c 1
 342 397 l 1
 286 397 l 1
 286 397 l 1
 391 139 l 1
 470 331 l 2
 471 334 474 340 474 344 c 0
 474 345 474 347 453 397 c 1
 394 397 l 1
 394 444 l 1
 410 443 452 441 494 441 c 0
 524 441 576 443 608 444 c 1
 608 397 l 1
 552 397 l 1
 552 397 l 5
 666 117 l 1
 771 373 l 2
 772 376 775 382 775 385 c 0
 775 396 726 397 717 397 c 1
 717 444 l 1
 739 443 786 441 813 441 c 0
 837 441 867 442 890 444 c 1
 890 397 l 1
 831 397 827 389 822 376 c 2
 678 23 l 2
 671 6 667 -4 642 -4 c 0
 617 -4 613 6 606 23 c 2
 500 282 l 1
 394 23 l 2
 387 6 383 -4 358 -4 c 0
 333 -4 329 6 322 23 c 2
 169 397 l 1
 110 397 l 1
EndSplineSet
EndChar
StartChar: x
Encoding: 120 120 59
Width: 1000
Flags: MW
LayerCount: 2
Fore
SplineSet
218 0 m 1
 218 47 l 1
 266 47 303 47 320 66 c 2
 450 213 l 1
 294 397 l 1
 294 397 l 1
 224 397 l 1
 224 444 l 1
 257 443 302 441 334 441 c 0
 366 441 428 443 454 444 c 1
 454 397 l 1
 414 397 l 1
 414 397 l 1
 512 282 l 1
 596 376 l 2
 600 380 600 382 604 388 c 1
 592 395 580 397 566 397 c 1
 566 444 l 1
 594 443 645 441 670 441 c 0
 675 441 727 442 762 444 c 1
 762 397 l 1
 679 397 673 390 660 376 c 2
 542 246 l 1
 710 47 l 1
 782 47 l 1
 782 0 l 1
 749 1 704 3 672 3 c 0
 639 3 578 1 552 0 c 1
 552 47 l 1
 590 47 l 1
 590 47 l 1
 480 177 l 1
 384 68 l 2
 377 60 376 59 376 58 c 0
 376 52 396 47 414 47 c 1
 414 0 l 1
 394 1 335 3 310 3 c 0
 305 3 253 2 218 0 c 1
EndSplineSet
EndChar
StartChar: y
Encoding: 121 121 60
Width: 1000
Flags: MW
LayerCount: 2
Fore
SplineSet
221 -108 m 0
 221 -69 250 -50 278 -50 c 0
 312 -50 336 -74 336 -107 c 0
 336 -142 313 -156 304 -160 c 1
 312 -163 314 -164 328 -164 c 0
 399 -164 431 -96 453 -48 c 2
 476 0 l 1
 289 397 l 1
 225 397 l 1
 225 444 l 1
 266 443 311 441 339 441 c 0
 340 441 430 442 463 444 c 1
 463 397 l 1
 409 397 l 1
 409 397 l 5
 536 127 l 1
 651 373 l 2
 652 374 656 384 656 385 c 0
 656 397 611 397 609 397 c 1
 609 444 l 1
 630 443 675 441 700 441 c 0
 725 441 755 442 779 444 c 1
 779 397 l 1
 715 397 712 390 705 376 c 2
 490 -81 l 2
 463 -138 405 -200 328 -200 c 0
 268 -200 221 -159 221 -108 c 0
EndSplineSet
EndChar
StartChar: z
Encoding: 122 122 61
Width: 1000
Flags: MW
LayerCount: 2
Fore
SplineSet
285 22 m 0
 285 31 285 33 294 44 c 2
 573 408 l 1
 488 408 l 2
 385 408 354 372 348 269 c 1
 301 269 l 1
 313 444 l 1
 680 444 l 2
 698 444 712 444 712 423 c 0
 712 414 710 412 702 401 c 2
 425 40 l 1
 511 40 l 2
 643 40 659 101 668 202 c 1
 715 202 l 1
 697 0 l 1
 317 0 l 2
 298 0 285 0 285 22 c 0
EndSplineSet
EndChar
StartChar: braceleft
Encoding: 123 123 91
Width: 1000
Flags: MW
LayerCount: 2
Fore
SplineSet
504 250 m 0
 504 274 530 265 567 275 c 0
 624 292 645 325 652 351 c 4
 655 363 656 373 656 379 c 2
 656 603 l 2
 656 631 654 691 742 726 c 0
 767 736 817 750 894 750 c 0
 907 750 921 749 921 732 c 0
 921 706 895 718 851 705 c 0
 775 682 770 631 770 608 c 2
 770 378 l 2
 770 351 764 280 649 250 c 1
 770 219 770 145 770 115 c 2
 770 -100 l 2
 770 -113 770 -126 774 -139 c 0
 785 -174 821 -198 863 -208 c 0
 894 -216 922 -208 922 -232 c 0
 922 -250 905 -250 898 -250 c 2
 893 -250 l 2
 802 -250 677 -230 658 -138 c 0
 656 -127 656 -115 656 -103 c 2
 656 112 l 2
 656 136 654 153 642 172 c 0
 619 207 578 226 538 230 c 0
 521 232 504 231 504 250 c 0
EndSplineSet
EndChar
StartChar: bar
Encoding: 124 124 92
Width: 1000
Flags: MW
LayerCount: 2
Fore
SplineSet
470 -209 m 2
 470 705 l 2
 470 715 468 749 500 749 c 0
 512 749 530 743 530 710 c 2
 530 -205 l 2
 530 -223 529 -249 500 -249 c 0
 469 -249 470 -216 470 -209 c 2
EndSplineSet
EndChar
StartChar: asciitilde
Encoding: 126 126 94
Width: 1000
Flags: MW
LayerCount: 2
Fore
SplineSet
245 611 m 1
 295 665 311 694 387 694 c 0
 467 694 553 660 633 660 c 0
 691 660 711 679 729 694 c 1
 755 669 l 1
 707 617 691 586 614 586 c 0
 534 586 447 620 367 620 c 0
 310 620 289 601 271 586 c 1
 245 611 l 1
EndSplineSet
EndChar
StartChar: cent
Encoding: 162 162 95
Width: 1000
Flags: MW
LayerCount: 2
Fore
SplineSet
248 223 m 0
 248 314 302 437 506 452 c 1
 506 545 l 1
 554 545 l 1
 554 453 l 1
 602 452 665 450 704 426 c 4
 726 413 740 393 740 362 c 0
 740 324 712 299 678 299 c 0
 644 299 616 324 616 361 c 0
 616 385 625 396 634 407 c 1
 608 411 581 412 554 412 c 1
 554 35 l 1
 638 38 674 69 694 100 c 0
 709 123 706 131 728 131 c 0
 739 131 752 129 752 117 c 0
 751 94 714 7 554 -5 c 1
 554 -97 l 1
 506 -97 l 1
 506 -5 l 1
 303 10 248 132 248 223 c 0
376 223 m 0
 376 175 383 65 506 40 c 1
 506 411 l 1
 412 395 376 337 376 223 c 0
EndSplineSet
EndChar
StartChar: sterling
Encoding: 163 163 96
Width: 1000
Flags: MW
LayerCount: 2
Fore
SplineSet
181 51 m 0
 181 101 233 136 311 139 c 4
 315 139 318 139 322 139 c 0
 341 139 360 137 379 134 c 1
 380 212 l 1
 380 323 l 1
 320 323 l 2
 310 323 302 324 298 331 c 0
 296 335 295 340 295 347 c 0
 295 354 296 359 298 362 c 0
 302 370 311 371 320 371 c 2
 380 371 l 1
 380 483 l 2
 380 492 379 501 379 510 c 0
 379 665 503 704 594 704 c 0
 710 704 787 613 787 524 c 0
 787 471 746 458 724 458 c 0
 692 458 662 483 662 520 c 0
 662 539 670 573 713 581 c 0
 717 582 721 583 726 583 c 1
 688 655 631 667 596 667 c 0
 553 667 522 646 507 616 c 0
 495 592 494 559 494 526 c 2
 494 371 l 1
 584 371 l 2
 600 371 610 369 610 347 c 0
 610 326 600 323 584 323 c 2
 494 323 l 1
 494 185 l 2
 494 154 492 137 481 108 c 1
 509 99 603 66 669 66 c 0
 716 66 762 86 771 130 c 0
 774 145 777 153 794 153 c 0
 801 153 806 152 810 150 c 0
 816 147 819 141 819 132 c 0
 819 77 763 -5 645 -5 c 0
 557 -5 452 40 437 40 c 0
 420 40 385 -5 279 -5 c 0
 231 -5 181 4 181 51 c 0
246 49 m 0
 246 42 253 31 280 31 c 0
 310 31 333 41 354 62 c 1
 335 65 317 67 298 67 c 2
 297 67 l 2
 271 67 246 64 246 49 c 0
EndSplineSet
EndChar
StartChar: currency
Encoding: 164 164 131
Width: 1000
Flags: MW
LayerCount: 2
Fore
SplineSet
269 285 m 0
 269 144 361 55 499 55 c 0
 644 55 730 148 730 286 c 0
 730 428 639 516 501 516 c 0
 356 516 269 424 269 285 c 0
167 -18 m 0
 167 3 199 26 269 97 c 1
 269 98 l 1
 227 151 209 219 209 286 c 0
 209 343 223 416 269 474 c 1
 269 475 l 1
 167 576 167 573 167 589 c 0
 167 605 181 619 196 619 c 0
 199 619 201 619 204 618 c 0
 216 614 231 598 262 567 c 2
 275 556 294 534 312 517 c 9
 312 517 l 17
 365 559 433 577 500 577 c 2
 501 577 l 2
 574 577 639 555 688 517 c 1
 689 517 l 1
 788 617 786 619 803 619 c 0
 819 619 833 605 833 589 c 0
 833 571 802 544 731 474 c 9
 731 474 l 17
 772 421 791 353 791 286 c 0
 791 206 767 145 731 97 c 9
 731 97 l 17
 812 17 833 -2 833 -18 c 0
 833 -33 820 -47 804 -47 c 0
 801 -47 798 -47 795 -46 c 0
 779 -40 761 -17 689 55 c 1
 688 55 l 1
 635 13 565 -5 499 -5 c 0
 411 -5 353 24 311 55 c 9
 311 55 l 21
 227 -30 213 -47 196 -47 c 0
 180 -47 167 -32 167 -18 c 0
EndSplineSet
EndChar
StartChar: yen
Encoding: 165 165 97
Width: 1000
Flags: MW
LayerCount: 2
Fore
SplineSet
85 638 m 1
 85 686 l 1
 132 684 180 683 243 683 c 0
 306 683 369 684 433 686 c 1
 433 638 l 1
 433 638 l 1
 349 638 l 1
 471 458 l 1
 612 458 l 2
 630 458 631 461 642 476 c 0
 741 618 741 622 741 626 c 0
 741 633 724 638 669 638 c 1
 669 686 l 1
 714 684 759 683 804 683 c 0
 838 683 871 684 915 686 c 1
 915 638 l 1
 914 638 l 2
 816 638 814 633 798 610 c 2
 695 458 l 1
 830 458 l 2
 849 458 867 458 867 440 c 0
 867 437 866 434 864 431 c 0
 860 426 852 422 838 422 c 2
 669 422 l 1
 669 422 l 1
 595 303 569 293 569 256 c 2
 569 236 l 1
 831 236 l 2
 846 236 867 236 867 218 c 0
 867 201 850 199 838 199 c 0
 835 199 833 200 831 200 c 2
 569 200 l 1
 569 48 l 1
 569 48 l 1
 677 48 l 1
 677 48 l 1
 677 0 l 1
 617 2 556 3 496 3 c 0
 462 3 410 3 324 0 c 1
 324 48 l 1
 324 48 l 1
 432 48 l 1
 432 48 l 1
 432 200 l 1
 170 200 l 2
 167 200 165 199 163 199 c 0
 150 199 134 201 134 218 c 0
 134 235 150 236 164 236 c 2
 432 236 l 1
 432 262 l 2
 432 277 428 281 343 404 c 0
 332 420 327 422 316 422 c 2
 167 422 l 2
 142 422 134 431 134 439 c 0
 134 446 139 453 144 456 c 1
 150 458 165 458 211 458 c 2
 306 458 l 1
 183 638 l 1
 85 638 l 1
497 422 m 1
 550 343 l 1
 605 422 l 1
 497 422 l 1
EndSplineSet
EndChar
StartChar: brokenbar
Encoding: 166 166 98
Width: 1000
Flags: MW
LayerCount: 2
Fore
SplineSet
470 126 m 2
 470 137 469 155 486 164 c 0
 491 167 495 168 500 168 c 0
 511 168 530 162 530 129 c 2
 530 -210 l 2
 530 -246 510 -250 501 -250 c 0
 489 -250 470 -243 470 -211 c 2
 470 126 l 2
470 371 m 2
 470 706 l 2
 470 719 469 736 487 746 c 0
 492 748 496 749 500 749 c 0
 511 749 530 743 530 710 c 2
 530 374 l 2
 530 351 525 332 500 332 c 0
 489 332 470 338 470 371 c 2
EndSplineSet
EndChar
StartChar: section
Encoding: 167 167 99
Width: 1000
Flags: MW
LayerCount: 2
Fore
SplineSet
316 253 m 0
 316 330 367 368 390 381 c 1
 350 421 316 470 316 542 c 0
 316 636 403 699 500 699 c 0
 569 699 628 670 654 626 c 0
 663 611 668 593 668 575 c 0
 668 536 638 517 610 517 c 0
 580 517 554 540 554 574 c 0
 554 610 582 623 596 629 c 1
 571 650 542 663 502 663 c 0
 433 663 386 601 386 548 c 0
 386 494 482 480 538 453 c 0
 656 396 684 299 684 246 c 0
 684 169 632 132 610 118 c 1
 650 78 684 29 684 -43 c 0
 684 -137 596 -200 498 -200 c 0
 434 -200 380 -175 352 -136 c 4
 339 -118 332 -98 332 -76 c 0
 332 -38 359 -17 388 -17 c 0
 419 -17 446 -41 446 -74 c 0
 446 -94 437 -117 404 -129 c 1
 428 -148 455 -163 498 -163 c 0
 549 -163 604 -126 612 -59 c 0
 613 -56 614 -54 614 -51 c 0
 614 7 524 16 460 47 c 0
 400 75 316 145 316 253 c 0
386 263 m 0
 386 209 452 203 536 166 c 0
 547 161 558 155 570 149 c 1
 592 169 614 199 614 240 c 0
 614 255 608 266 592 278 c 0
 554 307 521 306 452 340 c 0
 445 343 437 347 430 351 c 1
 395 318 386 285 386 263 c 0
EndSplineSet
EndChar
StartChar: dieresis
Encoding: 168 168 100
Width: 1000
Flags: MW
LayerCount: 2
Fore
SplineSet
310 608 m 0
 310 647 342 686 388 686 c 0
 428 686 466 653 466 608 c 0
 466 565 431 530 388 530 c 0
 347 530 310 563 310 608 c 0
534 608 m 0
 534 651 570 686 612 686 c 0
 653 686 690 653 690 608 c 0
 690 561 650 530 612 530 c 0
 572 530 534 563 534 608 c 0
EndSplineSet
EndChar
StartChar: degree
Encoding: 176 176 102
Width: 1000
Flags: MW
LayerCount: 2
Fore
SplineSet
64 559 m 0
 64 631 114 686 192 686 c 0
 269 686 319 631 319 558 c 0
 319 485 269 431 191 431 c 0
 114 431 64 485 64 559 c 0
125 558 m 0
 125 514 153 492 191 492 c 0
 233 492 258 516 258 559 c 0
 258 602 230 625 192 625 c 0
 150 625 125 601 125 558 c 0
EndSplineSet
EndChar
StartChar: plusminus
Encoding: 177 177 103
Width: 1000
Flags: MW
LayerCount: 2
Fore
SplineSet
118 -8 m 0
 118 19 141 23 160 23 c 2
 470 23 l 1
 470 315 l 1
 162 315 l 2
 155 315 147 315 140 317 c 0
 127 321 118 333 118 346 c 0
 118 374 145 376 158 376 c 2
 470 376 l 1
 470 683 l 2
 470 691 470 699 472 706 c 0
 475 719 487 728 500 728 c 0
 513 728 524 719 528 706 c 0
 530 699 530 690 530 682 c 2
 530 376 l 1
 836 376 l 2
 844 376 852 376 860 374 c 0
 872 370 882 359 882 346 c 0
 882 332 872 321 860 317 c 0
 852 315 844 315 836 315 c 2
 530 315 l 1
 530 23 l 1
 844 23 l 2
 878 23 882 1 882 -8 c 0
 882 -20 876 -37 842 -38 c 1
 158 -38 l 2
 122 -38 118 -17 118 -8 c 0
EndSplineSet
EndChar
StartChar: acute
Encoding: 180 180 104
Width: 1000
Flags: MW
LayerCount: 2
Fore
SplineSet
391 535 m 1
 519 653 524 662 551 662 c 0
 586 662 609 627 609 599 c 0
 609 554 570 547 473 514 c 4
 456 508 437 502 416 494 c 1
 391 535 l 1
EndSplineSet
EndChar
StartChar: paragraph
Encoding: 182 182 105
Width: 1000
Flags: MW
LayerCount: 2
Fore
SplineSet
197 457 m 0
 197 595 321 694 498 694 c 2
 757 694 l 2
 776 694 803 691 803 664 c 0
 803 653 796 642 786 637 c 0
 777 633 766 634 756 634 c 2
 708 634 l 1
 708 -134 l 1
 757 -134 l 2
 767 -134 777 -133 786 -138 c 0
 796 -143 803 -154 803 -165 c 0
 803 -176 796 -195 764 -195 c 2
 450 -195 l 1
 416 -194 412 -173 412 -164 c 0
 412 -154 418 -144 428 -139 c 1
 437 -133 447 -134 457 -134 c 2
 507 -134 l 1
 507 220 l 1
 338 229 197 315 197 457 c 0
567 -134 m 1
 647 -134 l 1
 647 634 l 1
 567 634 l 1
 567 -134 l 1
EndSplineSet
EndChar
StartChar: multiply
Encoding: 215 215 106
Width: 1000
Flags: MW
LayerCount: 2
Fore
SplineSet
222 499 m 4
 222 512 231 524 244 528 c 0
 246 529 247 529 250 529 c 0
 262 529 271 521 280 512 c 2
 500 293 l 1
 500 293 l 1
 720 512 l 2
 736 528 744 529 750 529 c 0
 768 529 778 514 778 499 c 0
 778 487 768 476 760 468 c 2
 610 317 l 0
 542 250 l 1
 762 30 l 2
 778 14 778 6 778 0 c 0
 778 -17 764 -29 750 -29 c 0
 738 -29 730 -22 720 -13 c 2
 500 207 l 1
 500 207 l 1
 280 -12 l 2
 271 -22 262 -29 250 -29 c 0
 234 -29 222 -16 222 0 c 0
 222 13 230 22 240 32 c 2
 458 250 l 1
 238 469 l 2
 230 476 222 487 222 499 c 4
EndSplineSet
EndChar
StartChar: divide
Encoding: 247 247 107
Width: 1000
Flags: MW
LayerCount: 2
Fore
SplineSet
118 250 m 0
 118 267 133 277 143 279 c 0
 151 281 160 280 168 280 c 2
 839 280 l 2
 845 280 852 280 858 279 c 0
 872 276 882 264 882 250 c 0
 882 222 856 220 841 220 c 2
 156 220 l 2
 122 220 118 241 118 250 c 0
406 5 m 0
 406 59 450 99 500 99 c 0
 554 99 594 56 594 5 c 0
 594 -49 550 -89 500 -89 c 0
 450 -89 406 -49 406 5 c 0
406 494 m 0
 406 549 450 588 500 588 c 0
 554 588 594 545 594 494 c 0
 594 440 550 400 500 400 c 0
 450 400 406 440 406 494 c 0
EndSplineSet
EndChar
StartChar: quoteleft
Encoding: 8216 8216 108
Width: 1000
Flags: MW
LayerCount: 2
Fore
SplineSet
836 470 m 0
 836 604 940 693 958 693 c 0
 967 693 977 685 977 675 c 0
 977 652 897 629 876 504 c 0
 875 495 873 486 872 476 c 1
 890 492 907 500 930 500 c 0
 976 500 1008 465 1008 422 c 0
 1008 383 980 344 930 344 c 0
 874 344 836 399 836 470 c 0
EndSplineSet
EndChar
StartChar: quoteright
Encoding: 8217 8217 109
Width: 1000
Flags: MW
LayerCount: 2
Fore
SplineSet
-7 616 m 0
 -7 659 24 694 71 694 c 0
 127 694 165 639 165 569 c 0
 165 434 61 345 43 345 c 0
 34 345 24 353 24 363 c 0
 24 389 106 407 125 538 c 0
 126 546 127 554 128 562 c 1
 110 546 96 538 71 538 c 0
 24 538 -7 573 -7 616 c 0
EndSplineSet
EndChar
StartChar: quotedblleft
Encoding: 8220 8220 110
Width: 1000
Flags: MW
LayerCount: 2
Fore
SplineSet
836 470 m 0
 836 604 940 693 958 693 c 0
 967 693 977 685 977 675 c 0
 977 652 897 629 876 504 c 0
 875 495 873 486 872 476 c 1
 890 492 907 500 930 500 c 0
 976 500 1008 465 1008 422 c 0
 1008 383 980 344 930 344 c 0
 874 344 836 399 836 470 c 0
566 470 m 0
 566 604 670 693 688 693 c 0
 697 693 707 685 707 675 c 0
 707 652 626 629 605 502 c 0
 604 494 603 485 602 476 c 1
 620 492 637 500 660 500 c 0
 706 500 738 465 738 422 c 0
 738 383 710 344 660 344 c 0
 604 344 566 399 566 470 c 0
EndSplineSet
EndChar
StartChar: dagger
Encoding: 8224 8224 112
Width: 1000
Flags: MW
LayerCount: 2
Fore
SplineSet
308 444 m 0
 308 475 332 501 366 501 c 0
 407 501 442 472 486 460 c 1
 477 523 442 589 442 638 c 0
 442 687 480 699 500 699 c 0
 521 699 558 687 558 637 c 0
 558 588 524 523 514 460 c 1
 562 473 591 501 632 501 c 0
 669 501 692 475 692 445 c 0
 692 413 669 387 634 387 c 0
 593 387 558 417 514 429 c 1
 528 349 558 324 558 242 c 0
 558 235 558 228 558 220 c 4
 557 116 548 -25 526 -181 c 0
 524 -194 521 -203 506 -205 c 0
 504 -205 504 -205 502 -205 c 2
 498 -205 l 2
 474 -205 476 -190 472 -168 c 0
 454 -42 445 91 444 231 c 1
 444 242 l 2
 444 321 473 348 486 429 c 1
 435 415 411 387 368 387 c 0
 331 387 308 414 308 444 c 0
EndSplineSet
EndChar
StartChar: daggerdbl
Encoding: 8225 8225 113
Width: 1000
Flags: MW
LayerCount: 2
Fore
SplineSet
308 25 m 0
 308 55 331 82 368 82 c 0
 409 82 435 55 484 40 c 1
 471 112 444 134 444 189 c 0
 444 234 477 249 500 249 c 0
 522 249 558 237 558 187 c 0
 558 141 527 99 516 40 c 1
 567 55 591 82 634 82 c 0
 669 82 692 56 692 25 c 0
 692 -6 669 -32 632 -32 c 0
 590 -32 566 -5 516 9 c 1
 524 -40 558 -94 558 -139 c 0
 558 -174 534 -200 500 -200 c 0
 480 -200 444 -187 444 -138 c 0
 444 -93 474 -47 484 9 c 1
 437 -4 409 -32 366 -32 c 0
 332 -32 308 -6 308 25 c 0
308 475 m 0
 308 505 331 532 368 532 c 0
 409 532 435 505 484 490 c 1
 474 542 444 595 444 639 c 0
 444 677 469 699 500 699 c 0
 522 699 558 687 558 637 c 0
 558 591 527 549 516 490 c 1
 565 505 591 532 632 532 c 0
 669 532 692 505 692 475 c 0
 692 444 669 418 634 418 c 0
 593 418 562 446 516 459 c 1
 524 410 558 356 558 311 c 0
 558 276 534 250 500 250 c 0
 480 250 444 263 444 312 c 0
 444 357 474 403 484 459 c 1
 437 446 409 418 366 418 c 0
 332 418 308 444 308 475 c 0
EndSplineSet
EndChar
StartChar: perthousand
Encoding: 8240 8240 118
Width: 1000
Flags: MW
LayerCount: 2
Fore
SplineSet
699 146 m 0x6ff8
 699 301 772 347 821 347 c 0
 870 347 946 305 946 146 c 0
 946 -14 870 -55 820 -55 c 0
 772 -55 699 -8 699 146 c 0x6ff8
782 131 m 2
 782 65 783 -18 823 -18 c 0
 852 -18 898 22 898 146 c 0
 898 272 852 310 822 310 c 0
 785 310 782 226 782 175 c 2
 782 131 l 2
54 549 m 0x9fe0
 54 697 138 750 199 750 c 0
 222 750 239 740 257 721 c 0
 298 675 349 646 403 646 c 0
 454 646 504 669 542 733 c 0
 548 743 554 750 564 750 c 0
 575 750 588 739 588 719 c 0
 588 715 588 709 581 696 c 2
 192 -37 l 2
 186 -47 182 -56 168 -56 c 0
 151 -56 137 -42 137 -25 c 0
 137 -16 142 -11 148 0 c 2
 488 632 l 1
 488 632 l 1
 472 623 443 611 404 611 c 0
 359 611 320 628 290 647 c 1
 300 605 300 562 300 549 c 0
 300 398 246 347 199 347 c 0
 143 347 54 394 54 549 c 0x9fe0
157 548 m 0
 157 476 158 383 201 383 c 0
 227 383 262 423 262 549 c 0
 262 671 227 714 201 714 c 0
 158 714 157 622 157 548 c 0
433 146 m 0
 433 294 500 347 554 347 c 0
 601 347 654 296 654 145 c 0
 654 0 604 -56 554 -56 c 0
 504 -56 433 -9 433 146 c 0
515 145 m 0
 515 73 515 -20 555 -20 c 0
 581 -20 617 20 617 146 c 0
 617 268 581 311 555 311 c 0
 515 311 515 219 515 145 c 0
EndSplineSet
EndChar
StartChar: minute
Encoding: 8242 8242 115
Width: 1000
Flags: MW
LayerCount: 2
Fore
SplineSet
43 500 m 1
 64 581 75 634 87 667 c 4
 99 699 112 711 139 711 c 0
 169 711 205 685 205 652 c 0
 205 615 166 595 63 489 c 1
 43 500 l 1
EndSplineSet
EndChar
StartChar: overline
Encoding: 8254 8254 114
Width: 1000
Flags: MW
LayerCount: 2
Fore
SplineSet
96 782 m 0
 96 793 102 813 135 813 c 2
 862 813 l 2
 896 813 902 795 902 782 c 0
 902 770 896 753 862 752 c 1
 135 752 l 2
 100 752 96 773 96 782 c 0
EndSplineSet
EndChar
StartChar: asterism
Encoding: 8258 8258 133
Width: 1000
Flags: MW
LayerCount: 2
Fore
SplineSet
527 -40 m 0
 527 -11 548 -4 557 -1 c 2
 698 48 l 1
 557 97 l 2
 548 100 527 107 527 136 c 0
 527 165 551 184 571 184 c 0
 577 184 586 182 598 173 c 2
 721 80 l 1
 699 208 l 2
 696 224 696 226 696 231 c 0
 696 259 723 270 740 270 c 0
 757 270 784 260 784 231 c 0
 784 226 784 224 781 208 c 2
 759 80 l 1
 882 173 l 2
 894 182 903 184 909 184 c 0
 929 184 953 165 953 136 c 0
 953 107 932 100 923 97 c 2
 782 48 l 1
 923 -1 l 2
 932 -4 953 -11 953 -40 c 0
 953 -69 929 -88 909 -88 c 0
 904 -88 895 -87 882 -77 c 2
 760 15 l 1
 773 -62 l 2
 777 -87 784 -130 784 -135 c 0
 784 -163 757 -174 740 -174 c 0
 723 -174 696 -164 696 -135 c 0
 696 -130 696 -128 699 -112 c 2
 721 16 l 1
 598 -77 l 2
 586 -86 577 -88 571 -88 c 0
 551 -88 527 -69 527 -40 c 0
47 -40 m 0
 47 -11 68 -4 77 -1 c 2
 218 48 l 1
 77 97 l 2
 68 100 47 107 47 136 c 0
 47 165 71 184 91 184 c 0
 97 184 106 182 118 173 c 2
 241 80 l 1
 219 208 l 2
 216 224 216 226 216 231 c 0
 216 259 243 270 260 270 c 0
 277 270 304 260 304 231 c 0
 304 226 304 224 301 208 c 2
 279 80 l 1
 402 173 l 2
 414 182 423 184 429 184 c 0
 449 184 473 165 473 136 c 0
 473 107 452 100 443 97 c 2
 302 48 l 1
 443 -1 l 2
 452 -4 473 -11 473 -40 c 0
 473 -69 449 -88 429 -88 c 0
 424 -88 415 -87 402 -77 c 2
 280 15 l 1
 293 -62 l 2
 297 -87 304 -130 304 -135 c 0
 304 -163 277 -174 260 -174 c 0
 243 -174 216 -164 216 -135 c 0
 216 -130 216 -128 219 -112 c 2
 241 16 l 1
 118 -77 l 2
 106 -86 97 -88 91 -88 c 0
 71 -88 47 -69 47 -40 c 0
287 440 m 0
 287 469 308 476 317 479 c 2
 458 528 l 1
 317 577 l 2
 308 580 287 587 287 616 c 0
 287 645 311 664 331 664 c 0
 337 664 346 662 358 653 c 2
 481 560 l 1
 459 688 l 2
 456 704 456 706 456 711 c 0
 456 739 483 750 500 750 c 0
 517 750 544 740 544 711 c 0
 544 706 544 704 541 688 c 2
 519 560 l 1
 642 653 l 2
 654 662 663 664 669 664 c 0
 689 664 713 645 713 616 c 0
 713 587 692 580 683 577 c 2
 542 528 l 1
 683 479 l 2
 692 476 713 469 713 440 c 0
 713 411 689 392 669 392 c 0
 664 392 655 393 642 403 c 2
 520 495 l 1
 533 418 l 2
 537 393 544 350 544 345 c 0
 544 317 517 306 500 306 c 0
 483 306 456 316 456 345 c 0
 456 350 456 352 459 368 c 2
 481 496 l 1
 358 403 l 2
 346 394 337 392 331 392 c 0
 311 392 287 411 287 440 c 0
EndSplineSet
EndChar
StartChar: questiondbl
Encoding: 8263 8263 129
Width: 1000
Flags: MW
LayerCount: 2
Fore
SplineSet
57 573 m 0
 57 594 63 614 77 633 c 4
 105 671 163 700 256 700 c 0
 293 700 471 700 471 571 c 0
 471 508 423 481 403 469 c 0
 365 447 272 386 272 283 c 2
 272 256 l 2
 272 232 272 226 248 226 c 0
 225 226 225 231 225 253 c 2
 225 291 l 2
 225 356 253 433 315 498 c 0
 335 518 343 534 343 578 c 0
 343 625 342 664 250 664 c 0
 204 664 163 652 137 633 c 1
 139 632 182 619 182 572 c 0
 182 531 151 509 119 509 c 0
 94 509 57 525 57 573 c 0
170 78 m 0
 170 121 205 156 248 156 c 0
 291 156 326 121 326 78 c 0
 326 35 291 0 248 0 c 0
 205 0 170 35 170 78 c 0
529 573 m 0
 529 594 535 614 549 633 c 4
 577 671 635 700 728 700 c 0
 765 700 943 700 943 571 c 0
 943 508 895 481 875 469 c 0
 837 447 744 386 744 283 c 2
 744 256 l 2
 744 232 744 226 720 226 c 0
 697 226 697 231 697 253 c 2
 697 291 l 2
 697 356 725 433 787 498 c 0
 807 518 815 534 815 578 c 0
 815 625 814 664 722 664 c 0
 676 664 635 652 609 633 c 1
 611 632 654 619 654 572 c 0
 654 531 623 509 591 509 c 0
 566 509 529 525 529 573 c 0
642 78 m 0
 642 121 677 156 720 156 c 0
 763 156 798 121 798 78 c 0
 798 35 763 0 720 0 c 0
 677 0 642 35 642 78 c 0
EndSplineSet
EndChar
StartChar: questionexclam
Encoding: 8264 8264 130
Width: 1000
Flags: MW
LayerCount: 2
Fore
SplineSet
134 573 m 0
 134 594 140 614 154 633 c 4
 182 671 241 700 334 700 c 0
 371 700 548 700 548 571 c 0
 548 508 500 481 480 469 c 0
 442 447 350 386 350 283 c 2
 350 256 l 2
 350 232 350 226 326 226 c 0
 303 226 302 231 302 253 c 2
 302 291 l 2
 302 356 330 433 392 498 c 0
 412 518 420 534 420 578 c 0
 420 625 420 664 328 664 c 0
 282 664 240 652 214 633 c 1
 216 632 260 619 260 572 c 0
 260 531 228 509 196 509 c 0
 171 509 134 525 134 573 c 0
248 78 m 0
 248 121 283 156 326 156 c 0
 369 156 404 121 404 78 c 0
 404 35 369 0 326 0 c 0
 283 0 248 35 248 78 c 0
708 78 m 0
 708 117 740 155 786 155 c 0
 827 155 864 122 864 77 c 0
 864 39 832 0 786 0 c 0
 741 0 708 37 708 78 c 0
708 634 m 0
 708 679 751 705 786 705 c 0
 823 705 866 680 866 633 c 0
 866 622 863 611 862 600 c 2
 814 256 l 2
 811 233 807 225 786 225 c 0
 763 225 764 236 760 265 c 2
 712 599 l 2
 710 610 708 622 708 634 c 0
EndSplineSet
EndChar
StartChar: asteriskdbl
Encoding: 8273 8273 132
Width: 1000
Flags: MW
LayerCount: 2
Fore
SplineSet
287 -40 m 0
 287 -11 308 -4 317 -1 c 2
 458 48 l 1
 317 97 l 2
 308 100 287 107 287 136 c 0
 287 165 311 184 331 184 c 0
 337 184 346 182 358 173 c 2
 481 80 l 1
 459 208 l 2
 456 224 456 226 456 231 c 0
 456 259 483 270 500 270 c 0
 517 270 544 260 544 231 c 0
 544 226 544 224 541 208 c 2
 519 80 l 1
 642 173 l 2
 654 182 663 184 669 184 c 0
 689 184 713 165 713 136 c 0
 713 107 692 100 683 97 c 2
 542 48 l 1
 683 -1 l 2
 692 -4 713 -11 713 -40 c 0
 713 -69 689 -88 669 -88 c 0
 664 -88 655 -87 642 -77 c 2
 520 15 l 1
 533 -62 l 2
 537 -87 544 -130 544 -135 c 0
 544 -163 517 -174 500 -174 c 0
 483 -174 456 -164 456 -135 c 0
 456 -130 456 -128 459 -112 c 2
 481 16 l 1
 358 -77 l 2
 346 -86 337 -88 331 -88 c 0
 311 -88 287 -69 287 -40 c 0
287 440 m 0
 287 469 308 476 317 479 c 2
 458 528 l 1
 317 577 l 2
 308 580 287 587 287 616 c 0
 287 645 311 664 331 664 c 0
 337 664 346 662 358 653 c 2
 481 560 l 1
 459 688 l 2
 456 704 456 706 456 711 c 0
 456 739 483 750 500 750 c 0
 517 750 544 740 544 711 c 0
 544 706 544 704 541 688 c 2
 519 560 l 1
 642 653 l 2
 654 662 663 664 669 664 c 0
 689 664 713 645 713 616 c 0
 713 587 692 580 683 577 c 2
 542 528 l 1
 683 479 l 2
 692 476 713 469 713 440 c 0
 713 411 689 392 669 392 c 0
 664 392 655 393 642 403 c 2
 520 495 l 1
 533 418 l 2
 537 393 544 350 544 345 c 0
 544 317 517 306 500 306 c 0
 483 306 456 316 456 345 c 0
 456 350 456 352 459 368 c 2
 481 496 l 1
 358 403 l 2
 346 394 337 392 331 392 c 0
 311 392 287 411 287 440 c 0
EndSplineSet
EndChar
StartChar: euro
Encoding: 8364 8364 127
Width: 1000
Flags: MW
LayerCount: 2
Fore
SplineSet
112 255 m 0
 112 263 125 293 127 297 c 0
 136 316 142 316 159 316 c 2
 312 316 l 1
 312 325 311 334 311 343 c 0
 311 352 312 361 312 370 c 1
 165 370 l 2
 158 370 151 369 144 369 c 0
 129 369 112 369 112 385 c 0
 112 393 122 414 127 427 c 0
 135 445 143 446 156 446 c 2
 327 446 l 1
 363 566 484 686 654 686 c 0
 779 686 885 607 885 584 c 0
 885 581 884 576 882 570 c 4
 878 560 872 545 863 525 c 0
 856 509 851 493 840 493 c 0
 820 493 775 572 654 572 c 0
 608 572 509 556 450 446 c 1
 797 446 l 2
 814 446 821 441 821 432 c 0
 821 422 814 408 805 389 c 0
 797 371 790 370 776 370 c 2
 427 370 l 1
 426 361 426 352 426 343 c 0
 426 334 426 325 427 316 c 1
 741 316 l 2
 760 316 766 311 766 302 c 0
 766 293 759 280 752 264 c 0
 742 240 737 240 717 240 c 2
 450 240 l 1
 510 129 607 114 656 114 c 0
 758 114 823 163 854 185 c 0
 863 191 869 196 873 196 c 0
 881 196 888 189 887 171 c 1
 887 112 l 2
 887 93 888 86 841 56 c 0
 779 15 710 0 654 0 c 0
 484 0 363 121 327 240 c 1
 133 240 l 2
 124 240 112 242 112 255 c 0
EndSplineSet
EndChar
StartChar: celsius
Encoding: 8451 8451 119
Width: 1000
Flags: MW
LayerCount: 2
Fore
SplineSet
14 559 m 0
 14 631 64 686 142 686 c 0
 219 686 269 631 269 558 c 0
 269 485 219 431 141 431 c 0
 64 431 14 485 14 559 c 0
75 558 m 0
 75 514 103 492 141 492 c 0
 183 492 208 516 208 559 c 0
 208 602 180 625 142 625 c 0
 100 625 75 601 75 558 c 0
269 343 m 0
 269 548 422 697 671 697 c 0
 739 697 806 679 868 629 c 1
 934 688 l 2
 942 695 944 697 953 697 c 0
 971 697 971 688 971 669 c 2
 971 454 l 2
 971 428 970 426 944 426 c 0
 921 426 920 428 917 447 c 0
 895 574 800 650 692 650 c 0
 640 650 553 639 488 573 c 1
 425 507 422 399 422 343 c 0
 422 253 434 178 481 121 c 1
 533 60 617 36 695 36 c 0
 796 36 917 97 924 231 c 0
 925 248 934 248 947 248 c 0
 964 248 971 247 971 227 c 0
 971 112 858 -11 671 -11 c 0
 422 -11 269 138 269 343 c 0
EndSplineSet
EndChar
StartChar: mho
Encoding: 8487 8487 128
Width: 1000
Flags: MW
LayerCount: 2
Fore
SplineSet
136 486 m 1
 173 686 l 1
 370 686 l 2
 390 685 396 678 396 656 c 0
 396 520 302 376 302 227 c 0
 302 66 411 25 500 25 c 0
 589 25 698 66 698 227 c 0
 698 370 604 522 604 656 c 0
 604 678 610 685 631 686 c 2
 827 686 l 1
 864 486 l 1
 816 486 l 1
 799 579 805 583 713 583 c 2
 659 583 l 1
 718 460 851 371 851 229 c 0
 851 133 774 -11 502 -11 c 0
 223 -11 149 133 149 229 c 0
 149 371 284 463 341 583 c 1
 287 583 l 2
 196 583 202 580 184 486 c 1
 136 486 l 1
EndSplineSet
EndChar
StartChar: angstrom
Encoding: 8491 8491 120
Width: 1000
Flags: MW
LayerCount: 2
Fore
SplineSet
106 0 m 1
 106 48 l 1
 205 48 206 53 216 78 c 2
 458 668 l 1
 458 668 l 1
 394 691 380 741 380 782 c 0
 380 854 429 902 500 902 c 0
 572 902 620 854 620 782 c 0
 620 742 606 691 542 668 c 1
 542 668 l 1
 796 48 l 1
 894 48 l 5
 894 48 l 1
 894 0 l 1
 831 2 783 3 736 3 c 0
 675 3 615 2 554 0 c 1
 554 48 l 1
 554 48 l 1
 648 48 l 1
 648 48 l 1
 588 192 l 1
 320 192 l 1
 284 103 270 73 270 62 c 0
 270 53 287 48 356 48 c 1
 356 0 l 1
 312 2 267 3 222 3 c 0
 188 3 153 2 106 0 c 1
340 240 m 1
 570 240 l 1
 456 518 l 1
 340 240 l 1
428 782 m 0
 428 740 433 698 498 698 c 0
 567 698 572 741 572 782 c 0
 572 825 566 866 500 866 c 0
 432 866 428 824 428 782 c 0
EndSplineSet
EndChar
StartChar: aleph
Encoding: 8501 8501 264
Width: 1000
Flags: W
LayerCount: 2
Fore
SplineSet
232 586 m 0
 232 648 264 670 282 699 c 1
 291 693 l 1
 288 682 282 670 282 657 c 0
 282 614 320 587 348 561 c 2
 543 380 l 1
 641 507 l 1
 604 535 560 575 528 608 c 1
 597 684 l 1
 638 655 672 630 717 594 c 0
 745 573 751 538 751 507 c 0
 751 466 726 453 726 419 c 1
 711 418 l 1
 708 435 693 448 681 461 c 1
 568 357 l 1
 719 218 l 2
 751 186 774 137 774 83 c 0
 774 44 756 33 754 2 c 1
 746 2 l 1
 731 56 678 108 644 141 c 2
 419 363 l 1
 400 346 382 330 369 316 c 0
 353 298 340 283 340 260 c 0
 340 215 384 192 384 117 c 0
 384 79 365 48 342 31 c 0
 307 3 268 2 231 -6 c 1
 228 5 l 1
 248 16 276 31 276 53 c 0
 276 98 226 159 226 223 c 0
 226 292 283 327 316 351 c 0
 332 363 372 375 392 385 c 1
 279 490 l 2
 256 511 232 544 232 586 c 0
EndSplineSet
Colour: ffff
EndChar
StartChar: arrowboth
Encoding: 8596 8596 269
Width: 1000
Flags: MW
LayerCount: 2
Fore
SplineSet
63 250 m 1
 174 286 261 374 288 500 c 1
 348 500 l 1
 329 405 282 335 223 280 c 1
 775 280 l 1
 708 342 667 414 649 500 c 1
 710 500 l 1
 749 318 892 266 935 250 c 1
 824 214 737 125 710 0 c 1
 649 0 l 1
 669 94 715 164 775 220 c 1
 223 220 l 1
 282 164 329 94 348 -0 c 1
 288 -0 l 1
 250 172 123 228 63 250 c 1
EndSplineSet
EndChar
StartChar: arrowdblright
Encoding: 8658 8658 267
Width: 1000
Flags: MW
LayerCount: 2
Fore
SplineSet
64 149 m 0
 64 178 91 180 103 180 c 2
 736.498046875 180 l 1
 759.596679688 207.421875 786.063476562 230.81640625 815.015625 248.443359375 c 1
 790.8125 265.012695312 762.79296875 288.545898438 736.302734375 320 c 1
 108 320 l 2
 82 320 64 324 64 349 c 0
 64 378 91 380 103 380 c 2
 694.291015625 380 l 1
 671.234375 420.348632812 647.850585938 478.99609375 635 575 c 1
 697 575 l 1
 721.079101562 373.767578125 824.826171875 290.995117188 935 250 c 1
 794.360351562 204.38671875 720.323242188 117.849609375 696 -75 c 1
 635 -75 l 1
 648.560546875 21.5224609375 670.885742188 78.482421875 694.69140625 120 c 1
 108 120 l 2
 82 120 64 124 64 149 c 0
EndSplineSet
EndChar
StartChar: arrowdblboth
Encoding: 8660 8660 268
Width: 1000
Flags: W
LayerCount: 2
Fore
SplineSet
63 250 m 1
 172.49424125 290.743125368 276.988559925 374.332965084 301 575 c 1
 363 575 l 1
 350.149094755 478.996178462 326.765637943 420.348483575 303.708380151 380 c 1
 694.291015625 380 l 1
 671.234375 420.348632812 647.850585938 478.99609375 635 575 c 1
 697 575 l 1
 721.079101562 373.767578125 824.826171875 290.995117188 935 250 c 1
 794.360351562 204.38671875 720.323242188 117.849609375 696 -75 c 1
 635 -75 l 1
 648.560546875 21.5224609375 670.885742188 78.482421875 694.69140625 120 c 1
 303.308189169 120 l 1
 327.114035949 78.4822598302 349.438978861 21.5225622239 363 -75 c 1
 302 -75 l 1
 277.624215258 118.265150451 203.853043549 204.318364043 63 250 c 1
182.984375 248.443359375 m 1
 211.93635031 230.816480967 238.403293858 207.421515428 261.502178155 180 c 1
 736.498046875 180 l 1
 759.596679688 207.421875 786.063476562 230.81640625 815.015625 248.443359375 c 1
 790.8125 265.012695312 762.79296875 288.545898438 736.302734375 320 c 1
 261.697211444 320 l 1
 235.207367256 288.545524086 207.187301792 265.012404798 182.984375 248.443359375 c 1
EndSplineSet
EndChar
StartChar: partialdiff
Encoding: 8706 8706 230
Width: 1000
Flags: W
LayerCount: 2
Fore
SplineSet
749 317 m 0
 729 238 700 158 642 89 c 1
 576 13 494 -11 424 -11 c 0
 285 -11 209 71 243 205 c 0
 278 345 398 418 519 418 c 0
 541 418 597 418 620 342 c 1
 624 361 l 2
 653 475 642 518 639 533 c 0
 627 580 582 616 521 616 c 0
 503 616 469 613 440 590 c 1
 475 585 486 558 478 528 c 0
 469 494 440 466 401 466 c 0
 362 466 344 492 354 530 c 0
 370 592 427 655 533 655 c 0
 669 655 812 569 749 317 c 0
585 210 m 0
 616 335 574 382 519 382 c 0
 474 382 445 365 426 336 c 0
 404 305 393 259 380 207 c 0
 368 158 357 115 361 84 c 4
 365 51 385 32 437 32 c 0
 489 32 526 71 538 87 c 0
 562 119 580 192 585 210 c 0
EndSplineSet
EndChar
StartChar: existential
Encoding: 8707 8707 227
Width: 1000
Flags: W
LayerCount: 2
Fore
SplineSet
168 -61 m 0
 168 -45 184 -43 197 -43 c 2
 796 -43 l 1
 796 233 l 1
 196 233 l 2
 172 233 168 244 168 252 c 0
 168 268 184 270 197 270 c 2
 796 270 l 1
 796 547 l 1
 196 547 l 2
 172 547 168 558 168 566 c 0
 168 582 184 584 197 584 c 2
 814 584 l 2
 824 584 832 574 832 566 c 2
 832 -61 l 2
 832 -76 819 -80 807 -80 c 2
 196 -80 l 2
 172 -80 168 -69 168 -61 c 0
EndSplineSet
EndChar
StartChar: emptyset
Encoding: 8709 8709 252
Width: 1000
Flags: W
LayerCount: 2
Fore
SplineSet
216 250 m 0
 216 406 344 533 500 533 c 0
 574 533 642 504 693 457 c 1
 739 503 l 2
 747 511 754 514 759 514 c 0
 768 514 775 504 775 497 c 0
 775 490 771 484 766 478 c 2
 718 431 l 1
 759 382 784 318 784 249 c 1
 784 93 656 -34 500 -34 c 0
 431 -34 368 -10 319 31 c 1
 263 -25 l 2
 254 -34 247 -37 241 -37 c 0
 232 -37 224 -28 224 -20 c 0
 224 -12 231 -4 237 2 c 2
 292 57 l 1
 245 108 216 176 216 250 c 0
254 250 m 0
 254 186 278 127 318 83 c 1
 667 431 l 1
 623 471 564 496 500 496 c 0
 364 496 254 386 254 250 c 0
345 57 m 1
 387 22 441 2 500 2 c 0
 636 2 748 113 748 249 c 0
 748 308 727 362 692 405 c 1
 345 57 l 1
EndSplineSet
EndChar
StartChar: element
Encoding: 8712 8712 212
Width: 1000
Flags: W
LayerCount: 2
Fore
SplineSet
150 250 m 0
 150 406 278 533 434 533 c 2
 824 533 l 2
 845 533 850 522 850 516 c 0
 850 500 836 497 824 497 c 2
 434 497 l 2
 304 497 197 396 188 268 c 1
 824 255 l 2
 846 254 850 244 850 237 c 0
 850 222 836 219 824 218 c 2
 188 231 l 1
 198 104 305 3 434 3 c 2
 824 3 l 2
 846 2 850 -8 850 -15 c 0
 850 -30 836 -33 824 -34 c 2
 434 -34 l 2
 278 -34 150 94 150 250 c 0
EndSplineSet
EndChar
StartChar: notelement
Encoding: 8713 8713 251
Width: 1000
Flags: W
LayerCount: 2
Fore
SplineSet
188 231 m 1
 196 123 275 34 378 10 c 1
 471 225 l 1
 188 231 l 1
188 268 m 1
 486 262 l 1
 587 497 l 1
 434 497 l 2
 304 497 197 396 188 268 c 1
150 250 m 0
 150 406 278 533 434 533 c 2
 603 533 l 1
 640 621 l 2
 644 630 650 648 664 648 c 0
 673 648 680 640 680 631 c 0
 680 622 675 614 672 606 c 2
 641 533 l 1
 824 533 l 2
 845 533 850 522 850 516 c 0
 850 500 836 497 824 497 c 2
 626 497 l 1
 525 261 l 1
 824 255 l 2
 846 254 850 244 850 237 c 0
 850 222 836 219 824 218 c 2
 510 224 l 1
 416 4 l 1
 422 4 428 3 434 3 c 2
 824 3 l 2
 846 2 850 -8 850 -15 c 0
 850 -30 836 -33 824 -34 c 2
 434 -34 l 2
 422 -34 411 -33 400 -32 c 1
 362 -121 l 2
 358 -130 351 -149 336 -149 c 0
 327 -149 320 -140 320 -131 c 0
 320 -124 324 -117 332 -97 c 2
 363 -25 l 1
 241 7 150 119 150 250 c 0
EndSplineSet
EndChar
StartChar: suchthat
Encoding: 8715 8715 213
Width: 1000
Flags: W
LayerCount: 2
Fore
SplineSet
150 -17 m 0
 150 -1 164 2 176 2 c 2
 566 2 l 2
 696 2 802 103 812 230 c 1
 178 230 l 2
 154 230 150 241 150 249 c 0
 150 265 167 267 180 267 c 2
 812 267 l 1
 803 395 696 496 566 496 c 2
 176 496 l 2
 154 497 150 507 150 514 c 0
 150 529 164 532 176 533 c 2
 566 533 l 2
 722 533 850 405 850 249 c 0
 850 93 722 -34 566 -34 c 2
 176 -34 l 2
 155 -34 150 -23 150 -17 c 0
EndSplineSet
EndChar
StartChar: summation
Encoding: 8721 8721 247
Width: 1000
Flags: W
LayerCount: 2
Fore
SplineSet
149 662 m 0
 149 684 166 686 180 686 c 2
 851 686 l 1
 881 444 l 1
 834 444 l 1
 811 600 724 618 700 624 c 0
 649 638 575 638 530 638 c 2
 346 638 l 1
 660 269 l 2
 666 262 674 253 674 243 c 0
 674 232 665 225 655 216 c 2
 245 -134 l 1
 512 -134 l 2
 691 -134 798 -126 824 60 c 1
 871 60 l 1
 841 -200 l 1
 148 -200 l 2
 135 -200 119 -198 119 -182 c 0
 119 -174 126 -166 142 -152 c 2
 541 189 l 1
 164 632 l 2
 157 640 149 648 149 662 c 0
EndSplineSet
EndChar
StartChar: minus
Encoding: 8722 8722 117
Width: 1000
Flags: MW
LayerCount: 2
Fore
SplineSet
118 250 m 1
 119 257 122 268 147 268 c 2
 854 268 l 2
 868 268 882 265 882 250 c 0
 882 243 878 233 857 232 c 1
 843 232 l 1
 813 232 l 5
 214 232 l 1
 163 232 l 1
 146 232 l 2
 132 232 119 235 118 250 c 1
EndSplineSet
EndChar
StartChar: minusplus
Encoding: 8723 8723 244
Width: 1000
Flags: W
LayerCount: 2
Fore
SplineSet
118 244 m 0
 118 257 127 269 140 273 c 0
 147 275 155 275 162 275 c 2
 470 275 l 1
 470 567 l 1
 160 567 l 2
 141 567 118 571 118 598 c 0
 118 607 122 628 158 628 c 2
 842 628 l 1
 876 627 882 610 882 598 c 0
 882 589 878 567 844 567 c 2
 530 567 l 1
 530 275 l 1
 836 275 l 2
 844 275 852 275 860 273 c 0
 872 269 882 258 882 244 c 0
 882 231 872 220 860 216 c 0
 852 214 844 214 836 214 c 2
 530 214 l 1
 530 -92 l 2
 530 -100 530 -109 528 -116 c 0
 524 -129 513 -138 500 -138 c 0
 487 -138 475 -129 472 -116 c 0
 470 -109 470 -101 470 -93 c 2
 470 214 l 1
 158 214 l 2
 145 214 118 216 118 244 c 0
EndSplineSet
EndChar
StartChar: proportional
Encoding: 8733 8733 258
Width: 1000
Flags: W
LayerCount: 2
Fore
SplineSet
208 250 m 0
 208 352 290 434 392 434 c 0
 465 434 528 392 558 330 c 1
 588 392 651 434 724 434 c 2
 774 434 l 2
 784 434 792 426 792 416 c 0
 792 406 784 398 774 398 c 2
 724 398 l 2
 642 398 576 332 576 250 c 0
 576 168 642 102 724 102 c 2
 774 102 l 2
 784 102 792 94 792 84 c 0
 792 74 784 66 774 66 c 2
 724 66 l 2
 651 66 588 108 558 170 c 1
 528 108 465 66 392 66 c 0
 290 66 208 148 208 250 c 0
244 250 m 0
 244 168 310 102 392 102 c 0
 474 102 540 168 540 250 c 0
 540 332 474 398 392 398 c 0
 310 398 244 332 244 250 c 0
EndSplineSet
EndChar
StartChar: infinity
Encoding: 8734 8734 210
Width: 1000
Flags: W
LayerCount: 2
Fore
SplineSet
688 83 m 0
 614 83 557 127 520 211 c 1
 506 186 490 167 473 153 c 0
 437 123 372 88 342 88 c 0
 246 88 140 185 140 324 c 0
 140 494 212 556 314 556 c 0
 372 556 443 498 479 428 c 1
 492 451 509 482 535 508 c 0
 564 538 604 561 662 561 c 0
 772 561 860 480 860 320 c 0
 860 191 809 83 688 83 c 0
688 169 m 0
 766 169 817 226 817 324 c 0
 817 381 801 475 717 475 c 0
 669 475 648 438 623 394 c 0
 592 339 565 292 547 257 c 1
 567 222 610 169 688 169 c 0
283 163 m 0
 317 163 361 218 370 234 c 2
 454 384 l 1
 425 428 364 481 315 481 c 0
 247 481 179 430 179 320 c 0
 179 280 213 163 283 163 c 0
EndSplineSet
EndChar
StartChar: orthogonal
Encoding: 8735 8735 245
Width: 1000
Flags: W
LayerCount: 2
Fore
SplineSet
168 -61 m 2
 168 556 l 2
 168 580 179 584 186 584 c 0
 201 584 204 569 204 555 c 2
 204 -43 l 1
 806 -43 l 2
 828 -44 832 -54 832 -61 c 0
 832 -76 819 -79 807 -80 c 2
 187 -80 l 2
 175 -80 168 -72 168 -61 c 2
EndSplineSet
EndChar
StartChar: angle
Encoding: 8736 8736 228
Width: 1000
Flags: W
LayerCount: 2
Fore
SplineSet
168 -64 m 0
 168 -56 170 -52 173 -47 c 2
 495 512 l 2
 503 526 511 529 517 529 c 0
 527 529 533 520 533 513 c 0
 533 506 530 500 526 493 c 2
 217 -43 l 1
 806 -43 l 2
 828 -44 832 -54 832 -61 c 0
 832 -76 819 -79 807 -80 c 2
 184 -80 l 2
 174 -80 168 -71 168 -64 c 0
EndSplineSet
EndChar
StartChar: parallel
Encoding: 8741 8741 262
Width: 1000
Flags: W
LayerCount: 2
Fore
SplineSet
569 -100 m 2
 569 -81 l 1
 569 596 l 9
 569 596 569 605 569 609 c 0
 570 621 574 632 587 632 c 0
 604 632 606 613 606 600 c 0
 606 596 605 592 605 590 c 10
 605 -95 l 2
 605 -112 604 -132 587 -132 c 0
 572 -132 569 -116 569 -100 c 2
394 -100 m 6
 394 -82 l 1
 394 596 l 9
 394 596 394 605 394 609 c 0
 395 621 399 632 412 632 c 0
 429 632 431 613 431 600 c 0
 431 596 430 592 430 590 c 10
 430 -95 l 2
 430 -112 429 -132 412 -132 c 0
 397 -132 394 -116 394 -100 c 6
EndSplineSet
EndChar
StartChar: notparallel
Encoding: 8742 8742 263
Width: 1000
Flags: W
LayerCount: 2
Fore
SplineSet
146 56 m 0
 146 62 151 67 156 72 c 0
 159 75 165 78 168 80 c 2
 394 210 l 1
 394 596 l 1
 394 596 394 605 394 609 c 0
 395 621 399 632 412 632 c 0
 429 632 432 613 432 600 c 0
 432 596 430 592 430 590 c 2
 430 231 l 1
 570 312 l 1
 570 596 l 1
 570 596 570 605 570 609 c 0
 571 621 575 632 588 632 c 0
 605 632 606 613 606 600 c 0
 606 596 606 592 606 590 c 2
 606 332 l 1
 812 451 l 1
 812 451 819 456 822 458 c 0
 827 460 833 462 838 462 c 0
 846 462 854 456 854 445 c 0
 854 434 843 426 834 421 c 0
 831 419 826 418 824 417 c 2
 606 291 l 1
 606 -95 l 2
 606 -112 605 -132 588 -132 c 0
 577 -132 572 -124 570 -114 c 0
 569 -110 570 -104 570 -100 c 2
 570 271 l 1
 430 190 l 1
 430 -95 l 2
 430 -112 429 -132 412 -132 c 0
 401 -132 398 -124 396 -114 c 0
 395 -110 394 -104 394 -100 c 2
 394 169 l 1
 190 52 l 2
 181 47 171 41 162 41 c 0
 155 41 146 47 146 56 c 0
EndSplineSet
EndChar
StartChar: logicaland
Encoding: 8743 8743 224
Width: 1000
Flags: W
LayerCount: 2
Fore
SplineSet
178 -83 m 0
 178 -76 181 -69 184 -62 c 2
 478 577 l 2
 483 586 488 598 500 599 c 1
 512 598 518 587 522 577 c 2
 816 -62 l 2
 819 -69 822 -76 822 -83 c 0
 822 -92 816 -100 806 -100 c 0
 793 -100 787 -85 784 -80 c 2
 532 470 l 2
 500 538 l 1
 468 468 l 2
 216 -80 l 2
 214 -85 207 -100 194 -100 c 0
 184 -100 178 -92 178 -83 c 0
EndSplineSet
EndChar
StartChar: logicalor
Encoding: 8744 8744 225
Width: 1000
Flags: W
LayerCount: 2
Fore
SplineSet
178 582 m 0
 178 591 184 598 194 598 c 0
 203 598 209 593 216 578 c 2
 462 44 l 6
 500 -40 l 1
 512 -11 527 17 540 46 c 2
 784 578 l 2
 787 583 793 598 806 598 c 0
 816 598 822 591 822 582 c 0
 822 575 819 567 816 560 c 2
 522 -78 l 2
 518 -87 512 -100 500 -100 c 0
 488 -100 482 -87 478 -78 c 2
 184 560 l 2
 181 567 178 575 178 582 c 0
EndSplineSet
EndChar
StartChar: integral
Encoding: 8747 8747 236
Width: 1000
Flags: W
LayerCount: 2
Fore
SplineSet
244 -56 m 0
 244 -13 277 14 314 14 c 0
 350 14 370 -11 370 -42 c 0
 370 -76 345 -96 339 -101 c 1
 345 -102 351 -103 358 -103 c 0
 398 -103 414 -53 421 29 c 2
 469 574 l 2
 480 696 557 760 645 760 c 0
 706 760 756 727 756 678 c 0
 756 637 723 610 688 610 c 0
 652 610 630 636 630 667 c 0
 630 698 652 718 657 722 c 1
 652 723 646 723 641 723 c 3
 591 723 584 641 581 605 c 6
 529 23 l 2
 517 -107 410 -140 357 -140 c 0
 295 -140 244 -106 244 -56 c 0
EndSplineSet
EndChar
StartChar: integraltrpl
Encoding: 8749 8749 248
Width: 1000
Flags: W
LayerCount: 2
Fore
SplineSet
-37 -49 m 0
 -30 -11 3 14 38 14 c 0
 76 14 94 -15 88 -49 c 0
 83 -80 58 -97 53 -101 c 1
 59 -102 65 -103 72 -103 c 0
 112 -103 132 -53 146 29 c 2
 242 574 l 2
 243 582 245 590 246 598 c 0
 265 707 357 760 434 760 c 0
 498 760 546 725 537 672 c 0
 530 635 498 610 464 610 c 0
 426 610 406 640 412 673 c 0
 417 702 438 718 443 722 c 1
 434 723 424 724 415 722 c 0
 377 710 363 639 357 605 c 2
 254 23 l 2
 231 -107 120 -140 67 -140 c 0
 2 -140 -47 -103 -37 -49 c 0
213 -49 m 0
 220 -11 253 14 288 14 c 0
 326 14 344 -15 338 -49 c 0
 333 -80 308 -97 303 -101 c 1
 309 -102 315 -103 322 -103 c 0
 362 -103 382 -53 396 29 c 2
 492 574 l 2
 493 582 495 590 496 598 c 0
 515 707 607 760 684 760 c 0
 748 760 796 725 787 672 c 0
 780 635 748 610 714 610 c 0
 676 610 656 640 662 673 c 0
 667 702 688 718 693 722 c 1
 684 723 674 724 665 722 c 0
 627 710 613 639 607 605 c 2
 504 23 l 2
 481 -107 370 -140 317 -140 c 0
 252 -140 203 -103 213 -49 c 0
463 -49 m 0
 470 -11 503 14 538 14 c 0
 576 14 594 -15 588 -49 c 0
 583 -80 558 -97 553 -101 c 1
 559 -102 565 -103 572 -103 c 0
 612 -103 632 -53 646 29 c 2
 742 574 l 2
 743 582 745 590 746 598 c 0
 765 707 857 760 934 760 c 0
 998 760 1046 725 1037 672 c 0
 1030 635 998 610 964 610 c 0
 926 610 906 640 912 673 c 0
 917 702 938 718 943 722 c 1
 934 723 924 724 915 722 c 0
 877 710 863 639 857 605 c 2
 754 23 l 2
 731 -107 620 -140 567 -140 c 0
 502 -140 453 -103 463 -49 c 0
EndSplineSet
EndChar
StartChar: contourintegral
Encoding: 8750 8750 257
Width: 1000
Flags: W
LayerCount: 2
Fore
SplineSet
244 -56 m 0
 244 -13 277 14 314 14 c 0
 350 14 370 -11 370 -42 c 0
 370 -76 345 -96 339 -101 c 1
 345 -102 351 -103 358 -103 c 0
 398 -103 414 -53 421 29 c 2
 430 129 l 1
 363 156 315 222 315 300 c 0
 315 389 378 462 461 480 c 1
 469 574 l 2
 480 696 557 760 645 760 c 0
 706 760 756 727 756 678 c 0
 756 637 723 610 688 610 c 0
 652 610 630 636 630 667 c 0
 630 698 652 718 657 722 c 1
 652 723 646 723 641 723 c 0
 591 723 584 641 581 605 c 2
 569 470 l 1
 636 443 683 377 683 300 c 0
 683 211 621 138 538 120 c 1
 529 23 l 2
 517 -107 409 -140 356 -140 c 0
 294 -140 244 -106 244 -56 c 0
351 300 m 0
 351 242 384 191 433 167 c 1
 457 442 l 1
 395 424 351 368 351 300 c 0
541 158 m 1
 602 176 647 233 647 300 c 0
 647 358 614 408 566 432 c 1
 541 158 l 1
EndSplineSet
EndChar
StartChar: therefore
Encoding: 8756 8756 211
Width: 1000
Flags: W
LayerCount: 2
Fore
SplineSet
278 78 m 0
 278 121 313 156 356 156 c 0
 399 156 434 121 434 78 c 0
 434 35 399 0 356 0 c 0
 313 0 278 35 278 78 c 0
422 366 m 0
 422 409 457 444 500 444 c 0
 543 444 578 409 578 366 c 0
 578 323 543 288 500 288 c 0
 457 288 422 323 422 366 c 0
566 78 m 0
 566 121 601 156 644 156 c 0
 687 156 722 121 722 78 c 0
 722 35 687 0 644 0 c 0
 601 0 566 35 566 78 c 0
EndSplineSet
EndChar
StartChar: because
Encoding: 8757 8757 235
Width: 1000
Flags: W
LayerCount: 2
Fore
SplineSet
278 366 m 0
 278 409 313 444 356 444 c 0
 399 444 434 409 434 366 c 0
 434 323 399 288 356 288 c 0
 313 288 278 323 278 366 c 0
422 78 m 0
 422 121 457 156 500 156 c 0
 543 156 578 121 578 78 c 0
 578 35 543 0 500 0 c 0
 457 0 422 35 422 78 c 0
566 366 m 0
 566 409 601 444 644 444 c 0
 687 444 722 409 722 366 c 0
 722 323 687 288 644 288 c 0
 601 288 566 323 566 366 c 0
EndSplineSet
EndChar
StartChar: reversedtilde
Encoding: 8765 8765 259
Width: 1000
Flags: W
LayerCount: 2
Fore
SplineSet
150 250 m 0
 150 352 232 434 334 434 c 0
 344 434 352 426 352 416 c 0
 352 406 344 398 334 398 c 0
 252 398 186 332 186 250 c 0
 186 168 252 102 334 102 c 0
 416 102 482 168 482 250 c 0
 482 352 564 434 666 434 c 0
 768 434 850 352 850 250 c 0
 850 148 768 66 666 66 c 0
 656 66 648 74 648 84 c 0
 648 94 656 102 666 102 c 0
 748 102 814 168 814 250 c 0
 814 332 748 398 666 398 c 0
 584 398 518 332 518 250 c 0
 518 148 436 66 334 66 c 0
 232 66 150 148 150 250 c 0
EndSplineSet
EndChar
StartChar: asymptequal
Encoding: 8771 8771 239
Width: 1000
Flags: W
LayerCount: 2
Fore
SplineSet
118 139 m 0
 118 155 134 157 147 157 c 2
 856 157 l 1
 878 156 882 146 882 139 c 0
 882 124 869 121 857 120 c 1
 146 120 l 2
 122 120 118 131 118 139 c 0
124 338 m 1
 174 392 265 421 341 421 c 0
 421 421 582 387 662 387 c 0
 720 387 815 406 833 421 c 1
 859 396 l 1
 811 344 720 313 643 313 c 0
 563 313 401 347 321 347 c 0
 264 347 168 328 150 313 c 1
 124 338 l 1
EndSplineSet
EndChar
StartChar: congruent
Encoding: 8773 8773 240
Width: 1000
Flags: W
LayerCount: 2
Fore
SplineSet
118 39 m 0
 118 55 134 57 147 57 c 2
 856 57 l 1
 878 56 882 46 882 39 c 0
 882 24 869 21 857 20 c 1
 146 20 l 2
 122 20 118 31 118 39 c 0
118 239 m 0
 118 255 134 257 147 257 c 2
 856 257 l 1
 878 256 882 246 882 239 c 0
 882 224 869 221 857 220 c 1
 146 220 l 2
 122 220 118 231 118 239 c 0
124 438 m 1
 174 492 265 521 341 521 c 0
 421 521 582 487 662 487 c 0
 720 487 815 506 833 521 c 1
 859 496 l 1
 811 444 720 413 643 413 c 0
 563 413 401 447 321 447 c 0
 264 447 168 428 150 413 c 1
 124 438 l 1
EndSplineSet
EndChar
StartChar: approxequal
Encoding: 8776 8776 241
Width: 1000
Flags: W
LayerCount: 2
Fore
SplineSet
132 123 m 1
 182 177 274 206 350 206 c 0
 430 206 590 172 670 172 c 0
 728 172 824 191 842 206 c 1
 868 181 l 1
 820 129 729 98 652 98 c 0
 572 98 410 132 330 132 c 0
 273 132 176 113 158 98 c 1
 132 123 l 1
132 338 m 1
 182 392 274 421 350 421 c 0
 430 421 590 387 670 387 c 0
 728 387 824 406 842 421 c 1
 868 396 l 1
 820 344 729 313 652 313 c 0
 572 313 410 347 330 347 c 0
 273 347 176 328 158 313 c 1
 132 338 l 1
EndSplineSet
EndChar
StartChar: approxequalorimage
Encoding: 8786 8786 126
Width: 1000
Flags: MW
LayerCount: 2
Fore
SplineSet
118 139 m 0
 118 155 134 157 147 157 c 2
 856 157 l 1
 878 156 882 146 882 139 c 0
 882 124 869 121 857 120 c 1
 146 120 l 2
 122 120 118 131 118 139 c 0
118 361 m 0
 118 376 133 379 147 379 c 2
 856 379 l 2
 877 379 882 368 882 362 c 0
 882 346 869 343 857 343 c 2
 146 343 l 2
 122 343 118 354 118 361 c 0
606 -45 m 0
 606 9 650 49 700 49 c 0
 754 49 794 6 794 -45 c 0
 794 -99 750 -139 700 -139 c 0
 650 -139 606 -99 606 -45 c 0
206 544 m 0
 206 599 250 638 300 638 c 0
 354 638 394 595 394 544 c 0
 394 490 350 450 300 450 c 0
 250 450 206 490 206 544 c 0
EndSplineSet
EndChar
StartChar: notequal
Encoding: 8800 8800 122
Width: 1000
Flags: MW
LayerCount: 2
Fore
SplineSet
118 361 m 0
 118 376 133 379 147 379 c 2
 536 379 l 1
 640 621 l 2
 643 630 650 648 664 648 c 0
 673 648 680 640 680 631 c 0
 680 622 675 614 672 606 c 2
 575 379 l 1
 856 379 l 2
 877 379 882 368 882 362 c 0
 882 346 869 343 857 343 c 2
 560 343 l 1
 481 157 l 1
 856 157 l 1
 878 156 882 146 882 139 c 0
 882 124 869 121 857 120 c 1
 465 120 l 1
 362 -121 l 2
 358 -130 351 -149 336 -149 c 0
 327 -149 320 -140 320 -131 c 0
 320 -124 324 -117 332 -97 c 2
 425 120 l 1
 146 120 l 2
 122 120 118 131 118 139 c 0
 118 155 134 157 147 157 c 2
 441 157 l 1
 521 343 l 1
 146 343 l 2
 122 343 118 354 118 361 c 0
EndSplineSet
EndChar
StartChar: equivalence
Encoding: 8801 8801 125
Width: 1000
Flags: MW
LayerCount: 2
Fore
SplineSet
118 89 m 0
 118 105 134 107 147 107 c 2
 856 107 l 1
 878 106 882 96 882 89 c 0
 882 74 869 71 857 70 c 1
 146 70 l 2
 122 70 118 81 118 89 c 0
118 239 m 0
 118 255 134 257 147 257 c 2
 856 257 l 1
 878 256 882 246 882 239 c 0
 882 224 869 221 857 220 c 1
 146 220 l 2
 122 220 118 231 118 239 c 0
118 411 m 0
 118 426 133 429 147 429 c 2
 856 429 l 2
 877 429 882 418 882 412 c 0
 882 396 869 393 857 393 c 2
 146 393 l 2
 122 393 118 404 118 411 c 0
EndSplineSet
EndChar
StartChar: notequivalence
Encoding: 8802 8802 238
Width: 1000
Flags: W
LayerCount: 2
Fore
SplineSet
118 89 m 0
 118 105 134 107 147 107 c 2
 420 107 l 1
 468 220 l 1
 146 220 l 2
 122 220 118 231 118 239 c 0
 118 255 134 257 147 257 c 2
 484 257 l 1
 542 393 l 1
 146 393 l 2
 122 393 118 404 118 411 c 0
 118 426 133 429 147 429 c 2
 558 429 l 1
 640 621 l 2
 644 630 650 648 664 648 c 0
 673 648 680 640 680 631 c 0
 680 622 675 614 672 606 c 2
 597 429 l 1
 856 429 l 2
 877 429 882 418 882 412 c 0
 882 396 869 393 857 393 c 2
 581 393 l 1
 523 257 l 1
 856 257 l 2
 878 256 882 246 882 239 c 0
 882 224 869 221 857 220 c 2
 507 220 l 1
 459 107 l 1
 856 107 l 2
 878 106 882 96 882 89 c 0
 882 74 869 71 857 70 c 2
 443 70 l 1
 362 -121 l 2
 358 -130 351 -149 336 -149 c 0
 327 -149 320 -140 320 -131 c 0
 320 -124 324 -117 332 -97 c 2
 404 70 l 1
 146 70 l 2
 122 70 118 81 118 89 c 0
EndSplineSet
EndChar
StartChar: lessoverequal
Encoding: 8806 8806 123
Width: 1000
Flags: MW
LayerCount: 2
Fore
SplineSet
118 -111 m 0
 118 -95 134 -93 147 -93 c 2
 856 -93 l 1
 878 -94 882 -104 882 -111 c 0
 882 -126 869 -129 857 -130 c 1
 146 -130 l 2
 122 -130 118 -119 118 -111 c 0
118 61 m 0
 118 76 133 79 147 79 c 2
 856 79 l 2
 877 79 882 68 882 62 c 0
 882 46 869 43 857 43 c 2
 146 43 l 2
 122 43 118 54 118 61 c 0
150 400 m 1
 151 412 162 418 172 422 c 2
 812 671 l 2
 819 673 825 672 832 672 c 0
 841 672 850 665 850 655 c 0
 850 642 835 635 830 633 c 2
 280 426 l 2
 212 400 l 1
 282 373 l 2
 830 166 l 2
 835 164 850 157 850 144 c 0
 850 134 841 127 832 127 c 0
 825 127 819 126 812 129 c 2
 172 377 l 2
 163 380 151 388 150 400 c 1
EndSplineSet
EndChar
StartChar: greateroverequal
Encoding: 8807 8807 124
Width: 1000
Flags: MW
LayerCount: 2
Fore
SplineSet
118 -111 m 0
 118 -95 134 -93 147 -93 c 2
 856 -93 l 1
 878 -94 882 -104 882 -111 c 0
 882 -126 869 -129 857 -130 c 1
 146 -130 l 2
 122 -130 118 -119 118 -111 c 0
118 61 m 0
 118 76 133 79 147 79 c 2
 856 79 l 2
 877 79 882 68 882 62 c 0
 882 46 869 43 857 43 c 2
 146 43 l 2
 122 43 118 54 118 61 c 0
151 144 m 0
 151 153 155 160 171 166 c 2
 705 366 l 2
 789 400 l 1
 760 412 732 421 703 434 c 2
 171 633 l 2
 166 635 151 642 151 655 c 0
 151 665 159 672 168 672 c 0
 175 672 187 669 194 666 c 2
 828 422 l 2
 837 418 849 412 849 400 c 0
 849 388 837 382 828 378 c 2
 194 134 l 2
 187 131 175 127 168 127 c 0
 159 127 151 134 151 144 c 0
EndSplineSet
EndChar
StartChar: muchless
Encoding: 8810 8810 232
Width: 1000
Flags: W
LayerCount: 2
Fore
SplineSet
454 250 m 1
 455 262 460 268 466 272 c 2
 824 566 l 2
 828 569 832 572 836 572 c 0
 841 572 846 565 846 555 c 0
 846 542 837 536 834 533 c 2
 526 281 l 2
 488 250 l 1
 527 218 l 2
 834 -34 l 2
 837 -36 846 -43 846 -56 c 0
 846 -66 841 -73 836 -73 c 0
 832 -73 828 -69 824 -66 c 2
 466 227 l 2
 461 232 455 238 454 250 c 1
154 250 m 1
 155 262 160 268 166 272 c 2
 524 566 l 2
 528 569 532 572 536 572 c 0
 541 572 546 565 546 555 c 0
 546 542 537 536 534 533 c 2
 226 281 l 2
 188 250 l 1
 227 218 l 2
 534 -34 l 2
 537 -36 546 -43 546 -56 c 0
 546 -66 541 -73 536 -73 c 0
 532 -73 528 -69 524 -66 c 2
 166 227 l 2
 161 232 155 238 154 250 c 1
EndSplineSet
EndChar
StartChar: muchgreater
Encoding: 8811 8811 233
Width: 1000
Flags: W
LayerCount: 2
Fore
SplineSet
454 -56 m 0
 454 -47 458 -41 466 -34 c 2
 765 211 l 2
 812 250 l 1
 796 262 780 276 764 289 c 2
 466 533 l 2
 463 536 454 542 454 555 c 0
 454 565 459 572 464 572 c 0
 468 572 472 569 476 566 c 2
 834 272 l 2
 839 268 846 262 846 250 c 0
 846 238 839 232 834 228 c 2
 476 -66 l 2
 472 -69 468 -73 464 -73 c 0
 459 -73 454 -66 454 -56 c 0
154 -56 m 0
 154 -47 158 -41 166 -34 c 2
 465 211 l 2
 512 250 l 1
 496 262 480 276 464 289 c 2
 166 533 l 2
 163 536 154 542 154 555 c 0
 154 565 159 572 164 572 c 0
 168 572 172 569 176 566 c 2
 534 272 l 2
 539 268 546 262 546 250 c 0
 546 238 539 232 534 228 c 2
 176 -66 l 2
 172 -69 168 -73 164 -73 c 0
 159 -73 154 -66 154 -56 c 0
EndSplineSet
EndChar
StartChar: lessorequivalent
Encoding: 8818 8818 249
Width: 1000
Flags: W
LayerCount: 2
Fore
SplineSet
132 -127 m 1
 182 -73 274 -44 350 -44 c 0
 430 -44 590 -78 670 -78 c 0
 728 -78 824 -59 842 -44 c 1
 868 -69 l 1
 820 -121 729 -152 652 -152 c 0
 572 -152 410 -118 330 -118 c 0
 273 -118 176 -137 158 -152 c 1
 132 -127 l 1
158 350 m 1
 159 362 170 368 180 372 c 2
 820 616 l 2
 827 619 833 622 840 622 c 0
 849 622 858 615 858 605 c 0
 858 592 843 585 838 583 c 2
 288 376 l 2
 220 350 l 1
 290 323 l 2
 838 116 l 2
 843 114 858 107 858 94 c 0
 858 84 849 77 840 77 c 0
 833 77 827 81 820 84 c 2
 180 327 l 2
 170 331 159 338 158 350 c 1
EndSplineSet
EndChar
StartChar: greaterorequivalent
Encoding: 8819 8819 250
Width: 1000
Flags: W
LayerCount: 2
Fore
SplineSet
132 -127 m 1
 182 -73 274 -44 350 -44 c 0
 430 -44 590 -78 670 -78 c 0
 728 -78 824 -59 842 -44 c 1
 868 -69 l 1
 820 -121 729 -152 652 -152 c 0
 572 -152 410 -118 330 -118 c 0
 273 -118 176 -137 158 -152 c 1
 132 -127 l 1
160 94 m 0
 160 103 164 110 180 116 c 2
 714 316 l 2
 798 350 l 1
 769 362 741 371 712 384 c 2
 180 583 l 2
 175 585 160 592 160 605 c 0
 160 615 167 622 176 622 c 0
 183 622 191 619 198 616 c 2
 836 372 l 2
 845 368 858 362 858 350 c 0
 858 338 845 332 836 328 c 2
 198 84 l 2
 191 81 183 77 176 77 c 0
 167 77 160 84 160 94 c 0
EndSplineSet
EndChar
StartChar: lessorgreater
Encoding: 8822 8822 242
Width: 1000
Flags: W
LayerCount: 2
Fore
SplineSet
151 -181 m 0
 151 -172 155 -165 171 -159 c 2
 705 41 l 2
 789 75 l 1
 760 87 732 96 703 109 c 2
 171 308 l 2
 166 310 151 317 151 330 c 0
 151 340 159 347 168 347 c 0
 175 347 187 344 194 341 c 2
 828 97 l 2
 837 93 849 87 849 75 c 0
 849 63 837 57 828 53 c 2
 194 -191 l 2
 187 -194 175 -198 168 -198 c 0
 159 -198 151 -191 151 -181 c 0
150 525 m 1
 151 537 162 543 172 547 c 2
 812 796 l 2
 819 798 825 797 832 797 c 0
 841 797 850 790 850 780 c 0
 850 767 835 760 830 758 c 2
 280 551 l 2
 212 525 l 1
 282 498 l 2
 830 291 l 2
 835 289 850 282 850 269 c 0
 850 259 841 252 832 252 c 0
 825 252 819 251 812 254 c 2
 172 502 l 2
 163 505 151 513 150 525 c 1
EndSplineSet
EndChar
StartChar: greaterorless
Encoding: 8823 8823 243
Width: 1000
Flags: W
LayerCount: 2
Fore
SplineSet
151 269 m 0
 151 278 155 285 171 291 c 2
 705 491 l 2
 789 525 l 1
 760 537 732 546 703 559 c 2
 171 758 l 2
 166 760 151 767 151 780 c 0
 151 790 159 797 168 797 c 0
 175 797 187 794 194 791 c 2
 828 547 l 2
 837 543 849 537 849 525 c 0
 849 513 837 507 828 503 c 2
 194 259 l 2
 187 256 175 252 168 252 c 0
 159 252 151 259 151 269 c 0
150 75 m 1
 151 87 162 93 172 97 c 2
 812 346 l 2
 819 348 825 347 832 347 c 0
 841 347 850 340 850 330 c 0
 850 317 835 310 830 308 c 2
 280 101 l 2
 212 75 l 1
 282 48 l 2
 830 -159 l 2
 835 -161 850 -168 850 -181 c 0
 850 -191 841 -198 832 -198 c 0
 825 -198 819 -199 812 -196 c 2
 172 52 l 2
 163 55 151 63 150 75 c 1
EndSplineSet
EndChar
StartChar: subset
Encoding: 8834 8834 216
Width: 1000
Flags: W
LayerCount: 2
Fore
SplineSet
150 250 m 0
 150 406 278 533 434 533 c 2
 824 533 l 2
 845 533 850 522 850 516 c 0
 850 500 836 497 824 497 c 2
 434 497 l 2
 298 497 188 386 188 250 c 0
 188 114 298 3 434 3 c 2
 824 3 l 1
 846 2 850 -8 850 -15 c 0
 850 -30 836 -33 824 -34 c 1
 434 -34 l 2
 278 -34 150 94 150 250 c 0
EndSplineSet
EndChar
StartChar: superset
Encoding: 8835 8835 217
Width: 1000
Flags: W
LayerCount: 2
Fore
SplineSet
150 -17 m 0
 150 -1 164 2 176 2 c 2
 566 2 l 2
 702 2 812 113 812 249 c 0
 812 385 702 496 566 496 c 2
 176 496 l 1
 154 497 150 507 150 514 c 0
 150 529 164 532 176 533 c 1
 566 533 l 2
 722 533 850 405 850 249 c 0
 850 93 722 -34 566 -34 c 2
 176 -34 l 2
 155 -34 150 -23 150 -17 c 0
EndSplineSet
EndChar
StartChar: notsuperset
Encoding: 8837 8837 221
Width: 1000
Flags: W
LayerCount: 2
Fore
SplineSet
150 -17 m 0
 150 -1 164 2 176 2 c 2
 373 2 l 1
 585 495 l 1
 579 495 572 496 566 496 c 2
 176 496 l 2
 154 497 150 507 150 514 c 0
 150 529 164 532 176 533 c 2
 566 533 l 2
 578 533 589 532 600 531 c 1
 638 621 l 2
 642 630 648 648 662 648 c 0
 671 648 678 640 678 631 c 0
 678 622 673 614 670 606 c 2
 636 524 l 1
 758 493 850 381 850 249 c 0
 850 93 722 -34 566 -34 c 2
 398 -34 l 1
 360 -121 l 2
 356 -130 349 -149 334 -149 c 0
 325 -149 318 -140 318 -131 c 0
 318 -124 322 -117 330 -97 c 2
 358 -34 l 1
 176 -34 l 2
 155 -34 150 -23 150 -17 c 0
413 2 m 1
 566 2 l 2
 702 2 812 113 812 249 c 0
 812 366 730 465 621 490 c 1
 413 2 l 1
EndSplineSet
EndChar
StartChar: subsetorequal
Encoding: 8838 8838 214
Width: 1000
Flags: W
LayerCount: 2
Fore
SplineSet
118 -61 m 0
 118 -45 134 -43 147 -43 c 2
 856 -43 l 1
 878 -44 882 -54 882 -61 c 0
 882 -76 869 -79 857 -80 c 1
 146 -80 l 2
 122 -80 118 -69 118 -61 c 0
150 350 m 4
 150 506 278 583 434 583 c 6
 823 583 l 6
 844 583 849 572 849 566 c 4
 849 550 836 547 824 547 c 6
 434 547 l 6
 298 547 187 486 187 350 c 4
 187 214 298 153 434 153 c 6
 823 153 l 5
 845 152 849 142 849 135 c 4
 849 120 836 117 824 116 c 5
 434 116 l 6
 278 116 150 194 150 350 c 4
EndSplineSet
EndChar
StartChar: supersetorequal
Encoding: 8839 8839 215
Width: 1000
Flags: W
LayerCount: 2
Fore
SplineSet
118 -61 m 0
 118 -45 134 -43 147 -43 c 2
 856 -43 l 1
 878 -44 882 -54 882 -61 c 0
 882 -76 869 -79 857 -80 c 1
 146 -80 l 2
 122 -80 118 -69 118 -61 c 0
152 133 m 0
 152 149 165 152 177 152 c 2
 567 152 l 2
 703 152 814 213 814 349 c 0
 814 485 703 546 567 546 c 2
 178 546 l 1
 156 547 152 557 152 564 c 0
 152 579 165 582 177 583 c 1
 567 583 l 2
 723 583 851 505 851 349 c 0
 851 193 723 116 567 116 c 2
 178 116 l 2
 157 116 152 127 152 133 c 0
EndSplineSet
EndChar
StartChar: subsetnotequal
Encoding: 8842 8842 222
Width: 1000
Flags: W
LayerCount: 2
Fore
SplineSet
118 -61 m 0
 118 -45 134 -43 147 -43 c 2
 490 -43 l 1
 559 116 l 1
 434 116 l 2
 278 116 150 194 150 350 c 0
 150 506 278 583 434 583 c 2
 823 583 l 2
 844 583 849 572 849 566 c 0
 849 550 836 547 824 547 c 2
 434 547 l 2
 298 547 187 486 187 350 c 0
 187 214 298 153 434 153 c 2
 823 153 l 2
 845 152 849 142 849 135 c 0
 849 120 836 117 824 116 c 2
 597 116 l 1
 530 -43 l 1
 856 -43 l 2
 878 -44 882 -54 882 -61 c 0
 882 -76 869 -79 857 -80 c 2
 514 -80 l 1
 475 -172 l 2
 471 -181 464 -200 449 -200 c 0
 440 -200 433 -191 433 -182 c 0
 433 -175 437 -168 445 -148 c 2
 474 -80 l 1
 146 -80 l 2
 122 -80 118 -69 118 -61 c 0
EndSplineSet
EndChar
StartChar: supersetnotequal
Encoding: 8843 8843 223
Width: 1000
Flags: W
LayerCount: 2
Fore
SplineSet
118 -61 m 0
 118 -45 134 -43 147 -43 c 2
 440 -43 l 1
 509 116 l 1
 178 116 l 2
 157 116 152 127 152 133 c 0
 152 149 165 152 177 152 c 2
 567 152 l 2
 703 152 814 213 814 349 c 0
 814 485 703 546 567 546 c 2
 178 546 l 2
 156 547 152 557 152 564 c 0
 152 579 165 582 177 583 c 2
 567 583 l 2
 723 583 851 505 851 349 c 0
 851 193 723 116 567 116 c 2
 547 116 l 1
 480 -43 l 1
 856 -43 l 2
 878 -44 882 -54 882 -61 c 0
 882 -76 869 -79 857 -80 c 2
 464 -80 l 1
 425 -172 l 2
 421 -181 414 -200 399 -200 c 0
 390 -200 383 -191 383 -182 c 0
 383 -175 387 -168 395 -148 c 2
 424 -80 l 1
 146 -80 l 2
 122 -80 118 -69 118 -61 c 0
EndSplineSet
EndChar
StartChar: circleplus
Encoding: 8853 8853 253
Width: 1000
Flags: W
LayerCount: 2
Fore
SplineSet
150 250 m 0
 150 443 307 600 500 600 c 0
 693 600 850 443 850 250 c 0
 850 57 693 -100 500 -100 c 0
 307 -100 150 57 150 250 c 0
187 232 m 1
 196 73 323 -54 482 -63 c 1
 482 232 l 1
 187 232 l 1
187 268 m 1
 482 268 l 1
 482 563 l 1
 323 554 196 427 187 268 c 1
518 -63 m 1
 677 -54 804 73 813 232 c 1
 518 232 l 1
 518 -63 l 1
518 268 m 1
 813 268 l 1
 804 427 677 554 518 563 c 1
 518 268 l 1
EndSplineSet
EndChar
StartChar: circleminus
Encoding: 8854 8854 254
Width: 1000
Flags: W
LayerCount: 2
Fore
SplineSet
150 250 m 0
 150 443 307 600 500 600 c 0
 693 600 850 443 850 250 c 0
 850 57 693 -100 500 -100 c 0
 307 -100 150 57 150 250 c 0
187 232 m 1
 196 67 333 -64 500 -64 c 0
 667 -64 804 67 813 232 c 1
 187 232 l 1
187 268 m 1
 813 268 l 1
 804 433 667 564 500 564 c 0
 333 564 196 433 187 268 c 1
EndSplineSet
EndChar
StartChar: circlemultiply
Encoding: 8855 8855 255
Width: 1000
Flags: W
LayerCount: 2
Fore
SplineSet
150 250 m 0
 150 443 307 600 500 600 c 0
 693 600 850 443 850 250 c 0
 850 57 693 -100 500 -100 c 0
 307 -100 150 57 150 250 c 0
186 250 m 0
 186 170 216 96 266 40 c 1
 472 246 l 1
 263 456 l 1
 215 401 186 329 186 250 c 0
288 481 m 1
 498 272 l 1
 710 484 l 1
 654 534 580 564 500 564 c 0
 418 564 344 532 288 481 c 1
292 15 m 1
 347 -34 420 -64 500 -64 c 0
 579 -64 651 -35 706 13 c 1
 498 221 l 1
 292 15 l 1
523 246 m 1
 732 38 l 1
 783 94 814 169 814 250 c 0
 814 330 784 403 735 458 c 1
 523 246 l 1
EndSplineSet
EndChar
StartChar: circledivide
Encoding: 8856 8856 256
Width: 1000
Flags: W
LayerCount: 2
Fore
SplineSet
150 250 m 0
 150 443 307 600 500 600 c 0
 693 600 850 443 850 250 c 0
 850 57 693 -100 500 -100 c 0
 307 -100 150 57 150 250 c 0
186 250 m 0
 186 169 216 95 267 39 c 1
 711 483 l 1
 655 534 581 564 500 564 c 0
 327 564 186 423 186 250 c 0
293 14 m 1
 348 -35 421 -64 500 -64 c 0
 673 -64 814 77 814 250 c 0
 814 329 785 402 736 457 c 1
 293 14 l 1
EndSplineSet
EndChar
StartChar: squareplus
Encoding: 8862 8862 265
Width: 1000
Flags: W
LayerCount: 2
Fore
SplineSet
118 -114 m 2
 118 614 l 2
 118 624 126 632 136 632 c 2
 864 632 l 2
 874 632 882 624 882 614 c 2
 882 -114 l 2
 882 -124 874 -132 864 -132 c 2
 136 -132 l 2
 126 -132 118 -124 118 -114 c 2
154 -96 m 1
 482 -96 l 1
 482 232 l 1
 154 232 l 1
 154 -96 l 1
518 -96 m 1
 846 -96 l 1
 846 232 l 1
 518 232 l 1
 518 -96 l 1
846 268 m 1
 846 596 l 1
 518 596 l 1
 518 268 l 1
 846 268 l 1
482 596 m 1
 154 596 l 1
 154 268 l 1
 482 268 l 1
 482 596 l 1
EndSplineSet
EndChar
StartChar: squaremultiply
Encoding: 8864 8864 266
Width: 1000
Flags: W
LayerCount: 2
Fore
SplineSet
118 -114 m 2
 118 614 l 2
 118 624 126 632 136 632 c 2
 864 632 l 2
 874 632 882 624 882 614 c 2
 882 -114 l 2
 882 -124 874 -132 864 -132 c 2
 136 -132 l 2
 126 -132 118 -124 118 -114 c 2
154 -71 m 1
 475 250 l 1
 154 571 l 1
 154 -71 l 1
179 596 m 1
 500 275 l 1
 821 596 l 1
 179 596 l 1
846 571 m 1
 525 250 l 1
 846 -71 l 1
 846 571 l 1
821 -96 m 1
 500 225 l 1
 179 -96 l 1
 821 -96 l 1
EndSplineSet
EndChar
StartChar: righttriangle
Encoding: 8895 8895 246
Width: 1000
Flags: W
LayerCount: 2
Fore
SplineSet
168 -61 m 0
 168 -52 173 -47 178 -42 c 2
 792 572 l 2
 800 580 805 584 814 584 c 0
 829 584 832 569 832 555 c 2
 832 -61 l 2
 832 -71 823 -80 815 -80 c 2
 196 -80 l 2
 172 -80 168 -69 168 -61 c 0
228 -43 m 1
 796 -43 l 1
 796 525 l 1
 228 -43 l 1
EndSplineSet
EndChar
StartChar: lessequalgreater
Encoding: 8922 8922 260
Width: 1000
Flags: W
LayerCount: 2
Fore
SplineSet
118 239 m 0
 118 255 134 257 147 257 c 2
 856 257 l 1
 878 256 882 246 882 239 c 0
 882 224 869 221 857 220 c 1
 146 220 l 2
 122 220 118 231 118 239 c 0
151 -181 m 0
 151 -172 155 -165 171 -159 c 0
 789 0 l 1
 171 158 l 0
 166 160 151 167 151 180 c 0
 151 190 159 197 168 197 c 0
 175 197 187 193 194 191 c 2
 828 22 l 2
 838 21 849 12 849 0 c 0
 849 -12 837 -18 828 -22 c 2
 194 -191 l 2
 187 -193 175 -198 168 -198 c 0
 159 -198 151 -191 151 -181 c 0
150 475 m 1
 151 487 162 494 172 497 c 2
 812 671 l 2
 818 674 825 672 832 672 c 0
 841 672 850 665 850 655 c 0
 850 642 835 635 830 633 c 0
 212 475 l 1
 830 316 l 0
 835 314 850 307 850 294 c 0
 850 284 841 277 832 277 c 0
 825 277 819 277 812 279 c 2
 172 452 l 2
 163 455 151 463 150 475 c 1
EndSplineSet
EndChar
StartChar: greaterequalless
Encoding: 8923 8923 261
Width: 1000
Flags: W
LayerCount: 2
Fore
SplineSet
118 239 m 0
 118 255 134 257 147 257 c 2
 856 257 l 1
 878 256 882 246 882 239 c 0
 882 224 869 221 857 220 c 1
 146 220 l 2
 122 220 118 231 118 239 c 0
151 294 m 0
 151 303 155 310 171 316 c 0
 789 475 l 1
 171 633 l 0
 166 635 151 642 151 655 c 0
 151 665 159 672 168 672 c 0
 175 672 187 669 194 666 c 2
 828 497 l 2
 838 494 849 487 849 475 c 0
 849 463 837 457 828 453 c 2
 194 284 l 2
 187 282 175 277 168 277 c 0
 159 277 151 284 151 294 c 0
150 0 m 1
 151 12 162 19 172 22 c 2
 812 196 l 2
 818 199 825 197 832 197 c 0
 841 197 850 190 850 180 c 0
 850 167 835 160 830 158 c 0
 212 0 l 1
 830 -159 l 0
 835 -161 850 -168 850 -181 c 0
 850 -191 841 -198 832 -198 c 0
 825 -198 819 -198 812 -196 c 2
 172 -23 l 2
 163 -20 151 -12 150 0 c 1
EndSplineSet
EndChar
StartChar: lthorizform
Encoding: 9472 9472 134
Width: 1000
Flags: W
LayerCount: 2
Fore
SplineSet
0 270 m 1
 0 330 l 1
 1000 330 l 1
 1000 270 l 1
 0 270 l 1
EndSplineSet
EndChar
StartChar: ltvertform
Encoding: 9474 9474 136
Width: 1000
Flags: W
LayerCount: 2
Fore
SplineSet
470 -200 m 1
 470 800 l 1
 530 800 l 1
 530 -200 l 1
 470 -200 l 1
EndSplineSet
EndChar
StartChar: hvvertform
Encoding: 9475 9475 137
Width: 1000
Flags: W
LayerCount: 2
Fore
SplineSet
410 -200 m 1
 410 800 l 1
 590 800 l 1
 590 -200 l 1
 410 -200 l 1
EndSplineSet
EndChar
StartChar: ltdashtriphorizform
Encoding: 9476 9476 138
Width: 1000
Flags: W
LayerCount: 2
Fore
SplineSet
60 270 m 1
 60 330 l 1
 274 330 l 1
 274 270 l 1
 60 270 l 1
393 270 m 1
 393 330 l 1
 607 330 l 1
 607 270 l 1
 393 270 l 1
726 270 m 1
 726 330 l 1
 940 330 l 1
 940 270 l 1
 726 270 l 1
EndSplineSet
EndChar
StartChar: hvdashtriphorizform
Encoding: 9477 9477 139
Width: 1000
Flags: W
LayerCount: 2
Fore
SplineSet
60 210 m 1
 60 390 l 1
 274 390 l 1
 274 210 l 1
 60 210 l 1
393 210 m 1
 393 390 l 1
 607 390 l 1
 607 210 l 1
 393 210 l 1
726 210 m 1
 726 390 l 1
 940 390 l 1
 940 210 l 1
 726 210 l 1
EndSplineSet
EndChar
StartChar: ltdashquadhorizform
Encoding: 9480 9480 142
Width: 1000
Flags: W
LayerCount: 2
Fore
SplineSet
41 270 m 1
 41 330 l 1
 208 330 l 1
 208 270 l 1
 41 270 l 1
292 270 m 1
 292 330 l 1
 458 330 l 1
 458 270 l 1
 292 270 l 1
541 270 m 1
 541 330 l 1
 708 330 l 1
 708 270 l 1
 541 270 l 1
791 270 m 1
 791 330 l 1
 958 330 l 1
 958 270 l 1
 791 270 l 1
EndSplineSet
EndChar
StartChar: ltdashquadvertform
Encoding: 9482 9482 144
Width: 1000
Flags: W
LayerCount: 2
Fore
SplineSet
470 9 m 1
 530 9 l 1
 530 -158 l 1
 470 -158 l 1
 470 9 l 1
470 92 m 1
 470 259 l 1
 530 259 l 1
 530 92 l 1
 470 92 l 1
470 342 m 1
 470 508 l 1
 530 508 l 1
 530 342 l 1
 470 342 l 1
470 592 m 1
 470 759 l 1
 530 759 l 1
 530 592 l 1
 470 592 l 1
EndSplineSet
EndChar
StartChar: hvdashquadvertform
Encoding: 9483 9483 145
Width: 1000
Flags: W
LayerCount: 2
Fore
SplineSet
410 9 m 1
 590 9 l 1
 590 -158 l 1
 410 -158 l 1
 410 9 l 1
410 92 m 1
 410 259 l 1
 590 259 l 1
 590 92 l 1
 410 92 l 1
410 342 m 1
 410 508 l 1
 590 508 l 1
 590 342 l 1
 410 342 l 1
410 592 m 1
 410 759 l 1
 590 759 l 1
 590 592 l 1
 410 592 l 1
EndSplineSet
EndChar
StartChar: ltdnrtform
Encoding: 9484 9484 146
Width: 1000
Flags: W
LayerCount: 2
Fore
SplineSet
470 -200 m 1
 470 330 l 1
 1000 330 l 1
 1000 270 l 1
 530 270 l 1
 530 -200 l 1
 470 -200 l 1
EndSplineSet
EndChar
StartChar: dnhvrtltform
Encoding: 9486 9486 148
Width: 1000
Flags: W
LayerCount: 2
Fore
SplineSet
410 -200 m 1
 410 330 l 1
 1000 330 l 1
 1000 270 l 1
 590 270 l 1
 590 -200 l 1
 410 -200 l 1
EndSplineSet
EndChar
StartChar: ltdnleftform
Encoding: 9488 9488 150
Width: 1000
Flags: W
LayerCount: 2
Fore
SplineSet
0 270 m 1
 0 330 l 1
 530 330 l 1
 530 -200 l 1
 470 -200 l 1
 470 270 l 1
 0 270 l 1
EndSplineSet
EndChar
StartChar: dnltlefthvform
Encoding: 9489 9489 151
Width: 1000
Flags: W
LayerCount: 2
Fore
SplineSet
0 210 m 1
 0 390 l 1
 530 390 l 1
 530 -200 l 1
 470 -200 l 1
 470 210 l 1
 0 210 l 1
EndSplineSet
EndChar
StartChar: ltuprtform
Encoding: 9492 9492 154
Width: 1000
Flags: W
LayerCount: 2
Fore
SplineSet
470 270 m 1
 470 800 l 1
 530 800 l 1
 530 330 l 1
 1000 330 l 1
 1000 270 l 1
 470 270 l 1
EndSplineSet
EndChar
StartChar: uphvrtltform
Encoding: 9494 9494 156
Width: 1000
Flags: W
LayerCount: 2
Fore
SplineSet
410 270 m 1
 410 800 l 1
 590 800 l 1
 590 330 l 1
 1000 330 l 1
 1000 270 l 1
 410 270 l 1
EndSplineSet
EndChar
StartChar: hvuprtform
Encoding: 9495 9495 157
Width: 1000
Flags: W
LayerCount: 2
Fore
SplineSet
410 210 m 1
 410 800 l 1
 590 800 l 1
 590 390 l 1
 1000 390 l 1
 1000 210 l 1
 410 210 l 1
EndSplineSet
EndChar
StartChar: ltupleftform
Encoding: 9496 9496 158
Width: 1000
Flags: W
LayerCount: 2
Fore
SplineSet
0 270 m 1
 0 330 l 1
 470 330 l 1
 470 800 l 1
 530 800 l 1
 530 270 l 1
 0 270 l 1
EndSplineSet
EndChar
StartChar: vertltrthvform
Encoding: 9501 9501 163
Width: 1000
Flags: W
LayerCount: 2
Fore
SplineSet
470 -200 m 1
 470 800 l 1
 530 800 l 1
 530 390 l 1
 1000 390 l 1
 1000 210 l 1
 530 210 l 1
 530 -200 l 1
 470 -200 l 1
EndSplineSet
EndChar
StartChar: uphvrtdnltform
Encoding: 9502 9502 164
Width: 1000
Flags: W
LayerCount: 2
Fore
SplineSet
410 270 m 1
 410 800 l 1
 590 800 l 1
 590 330 l 1
 1000 330 l 1
 1000 270 l 1
 530 270 l 1
 530 -200 l 1
 470 -200 l 1
 470 270 l 1
 410 270 l 1
EndSplineSet
EndChar
StartChar: upltrtdnhvform
Encoding: 9506 9506 168
Width: 1000
Flags: W
LayerCount: 2
Fore
SplineSet
410 -200 m 1
 410 390 l 1
 470 390 l 1
 470 800 l 1
 530 800 l 1
 530 390 l 1
 1000 390 l 1
 1000 210 l 1
 590 210 l 1
 590 -200 l 1
 410 -200 l 1
EndSplineSet
EndChar
StartChar: hvvertrtform
Encoding: 9507 9507 169
Width: 1000
Flags: W
LayerCount: 2
Fore
SplineSet
410 -200 m 1
 410 800 l 1
 590 800 l 1
 590 390 l 1
 1000 390 l 1
 1000 210 l 1
 590 210 l 1
 590 -200 l 1
 410 -200 l 1
EndSplineSet
EndChar
StartChar: vtltlefthvform
Encoding: 9509 9509 171
Width: 1000
Flags: W
LayerCount: 2
Fore
SplineSet
0 210 m 1
 0 390 l 1
 470 390 l 1
 470 800 l 1
 530 800 l 1
 530 -200 l 1
 470 -200 l 1
 470 210 l 1
 0 210 l 1
EndSplineSet
EndChar
StartChar: uphvleftdnltform
Encoding: 9510 9510 172
Width: 1000
Flags: W
LayerCount: 2
Fore
SplineSet
0 270 m 1
 0 330 l 1
 410 330 l 1
 410 800 l 1
 590 800 l 1
 590 270 l 1
 530 270 l 1
 530 -200 l 1
 470 -200 l 1
 470 270 l 1
 0 270 l 1
EndSplineSet
EndChar
StartChar: lefthvrtdnltform
Encoding: 9517 9517 179
Width: 1000
Flags: W
LayerCount: 2
Fore
SplineSet
0 210 m 1
 0 390 l 1
 530 390 l 1
 530 330 l 1
 1000 330 l 1
 1000 270 l 1
 530 270 l 1
 530 -200 l 1
 470 -200 l 1
 470 210 l 1
 0 210 l 1
EndSplineSet
EndChar
StartChar: rthvleftdnltform
Encoding: 9518 9518 180
Width: 1000
Flags: W
LayerCount: 2
Fore
SplineSet
0 270 m 1
 0 330 l 1
 470 330 l 1
 470 390 l 1
 1000 390 l 1
 1000 210 l 1
 530 210 l 1
 530 -200 l 1
 470 -200 l 1
 470 270 l 1
 0 270 l 1
EndSplineSet
EndChar
StartChar: dnhvhorizltform
Encoding: 9520 9520 182
Width: 1000
Flags: W
LayerCount: 2
Fore
SplineSet
0 270 m 1
 0 330 l 1
 1000 330 l 1
 1000 270 l 1
 590 270 l 1
 590 -200 l 1
 410 -200 l 1
 410 270 l 1
 0 270 l 1
EndSplineSet
EndChar
StartChar: rtltrtdnhvform
Encoding: 9521 9521 183
Width: 1000
Flags: W
LayerCount: 2
Fore
SplineSet
0 210 m 1
 0 390 l 1
 590 390 l 1
 590 330 l 1
 1000 330 l 1
 1000 270 l 1
 590 270 l 1
 590 -200 l 1
 410 -200 l 1
 410 210 l 1
 0 210 l 1
EndSplineSet
EndChar
StartChar: ltuphorizform
Encoding: 9524 9524 186
Width: 1000
Flags: W
LayerCount: 2
Fore
SplineSet
0 270 m 1
 0 330 l 1
 470 330 l 1
 470 800 l 1
 530 800 l 1
 530 330 l 1
 1000 330 l 1
 1000 270 l 1
 0 270 l 1
EndSplineSet
EndChar
StartChar: lefthvrtupltform
Encoding: 9525 9525 187
Width: 1000
Flags: W
LayerCount: 2
Fore
SplineSet
0 210 m 1
 0 390 l 1
 470 390 l 1
 470 800 l 1
 530 800 l 1
 530 330 l 1
 1000 330 l 1
 1000 270 l 1
 530 270 l 1
 530 210 l 1
 0 210 l 1
EndSplineSet
EndChar
StartChar: rthvleftupltform
Encoding: 9526 9526 188
Width: 1000
Flags: W
LayerCount: 2
Fore
SplineSet
0 270 m 1
 0 330 l 1
 470 330 l 1
 470 800 l 1
 530 800 l 1
 530 390 l 1
 1000 390 l 1
 1000 210 l 1
 470 210 l 1
 470 270 l 1
 0 270 l 1
EndSplineSet
EndChar
StartChar: uphvhorizltform
Encoding: 9528 9528 190
Width: 1000
Flags: W
LayerCount: 2
Fore
SplineSet
0 270 m 1
 0 330 l 1
 410 330 l 1
 410 800 l 1
 590 800 l 1
 590 330 l 1
 1000 330 l 1
 1000 270 l 1
 0 270 l 1
EndSplineSet
EndChar
StartChar: rtltleftuphvform
Encoding: 9529 9529 191
Width: 1000
Flags: W
LayerCount: 2
Fore
SplineSet
0 210 m 1
 0 390 l 1
 410 390 l 1
 410 800 l 1
 590 800 l 1
 590 330 l 1
 1000 330 l 1
 1000 270 l 1
 590 270 l 1
 590 210 l 1
 0 210 l 1
EndSplineSet
EndChar
StartChar: hvuphorizform
Encoding: 9531 9531 193
Width: 1000
Flags: W
LayerCount: 2
Fore
SplineSet
0 210 m 1
 0 390 l 1
 410 390 l 1
 410 800 l 1
 590 800 l 1
 590 390 l 1
 1000 390 l 1
 1000 210 l 1
 0 210 l 1
EndSplineSet
EndChar
StartChar: lefthvrtvertltform
Encoding: 9533 9533 195
Width: 1000
Flags: W
LayerCount: 2
Fore
SplineSet
0 210 m 1
 0 390 l 1
 470 390 l 1
 470 800 l 1
 530 800 l 1
 530 330 l 1
 1000 330 l 1
 1000 270 l 1
 530 270 l 1
 530 -200 l 1
 470 -200 l 1
 470 210 l 1
 0 210 l 1
EndSplineSet
EndChar
StartChar: uphvdnhorizltform
Encoding: 9536 9536 198
Width: 1000
Flags: W
LayerCount: 2
Fore
SplineSet
0 270 m 1
 0 330 l 1
 410 330 l 1
 410 800 l 1
 590 800 l 1
 590 330 l 1
 1000 330 l 1
 1000 270 l 1
 530 270 l 1
 530 -200 l 1
 470 -200 l 1
 470 270 l 1
 0 270 l 1
EndSplineSet
EndChar
StartChar: verthvhorizltform
Encoding: 9538 9538 200
Width: 1000
Flags: W
LayerCount: 2
Fore
SplineSet
0 270 m 1
 0 330 l 1
 410 330 l 1
 410 800 l 1
 590 800 l 1
 590 330 l 1
 1000 330 l 1
 1000 270 l 1
 590 270 l 1
 590 -200 l 1
 410 -200 l 1
 410 270 l 1
 0 270 l 1
EndSplineSet
EndChar
StartChar: leftuphvrtdnltform
Encoding: 9539 9539 201
Width: 1000
Flags: W
LayerCount: 2
Fore
SplineSet
0 210 m 1
 0 390 l 1
 410 390 l 1
 410 800 l 1
 590 800 l 1
 590 330 l 1
 1000 330 l 1
 1000 270 l 1
 590 270 l 1
 590 210 l 1
 530 210 l 1
 530 -200 l 1
 470 -200 l 1
 470 210 l 1
 0 210 l 1
EndSplineSet
EndChar
StartChar: rtuphvleftdnltform
Encoding: 9540 9540 202
Width: 1000
Flags: W
LayerCount: 2
Fore
SplineSet
0 270 m 1
 0 330 l 1
 410 330 l 1
 410 800 l 1
 590 800 l 1
 590 390 l 1
 1000 390 l 1
 1000 210 l 1
 530 210 l 1
 530 -200 l 1
 470 -200 l 1
 470 210 l 1
 410 210 l 1
 410 270 l 1
 0 270 l 1
EndSplineSet
EndChar
StartChar: zero.slash
Encoding: 63032 63032 121
Width: 1000
Flags: MW
LayerCount: 2
Fore
SplineSet
228 319 m 0
 228 382 227 504 292 582 c 0
 328 625 394 655 500 655 c 0
 595 655 658 631 694 596 c 0
 772 519 772 385 772 319 c 0
 772 252 772 128 700 52 c 0
 664 14 600 -11 500 -11 c 0
 400 -11 336 14 300 52 c 0
 228 128 228 253 228 319 c 0
358 331 m 0
 358 292 363 228 365 176 c 0
 366 161 366 147 366 134 c 1
 604 579 l 1
 578 607 538 619 500 619 c 0
 470 619 383 609 368 520 c 0
 358 468 358 403 358 331 c 0
386 78 m 29
 392 71 394 67 402 61 c 16
 431 35 471 25 500 25 c 0
 538 25 616 39 634 132 c 0
 643 184 642 275 642 331 c 0
 642 385 635 450 631 498 c 0
 630 512 630 524 630 534 c 1
 558 399 386 78 386 78 c 29
EndSplineSet
EndChar
